<!-- Generated by IcoMoon.io -->
<svg version="1.1" xmlns="http://www.w3.org/2000/svg" width="32" height="32" viewBox="0 0 32 32">
<title>Account</title>
<path d="M22.004 10.854c0-3.436-2.693-6.212-6.004-6.212s-6.004 2.776-6.004 6.212c0 3.436 2.693 6.212 6.004 6.212s6.004-2.776 6.004-6.212zM16 2.667c4.404 0 7.965 3.671 7.965 8.187 0 3.027-1.6 5.675-3.981 7.091 4.999 1.168 8.016 4.697 8.016 10.208v0.193c0 0.545-0.439 0.988-0.98 0.988h-22.039c-0.541 0-0.98-0.442-0.98-0.988v-0.193c0-5.511 3.017-9.039 8.017-10.209-2.381-1.416-3.981-4.063-3.981-7.090 0-4.517 3.561-8.187 7.965-8.187zM16 19.49c-6.033 0-9.678 2.726-10.014 7.868h20.028c-0.336-5.142-3.981-7.868-10.014-7.868z"></path>
</svg>
