<!-- Generated by IcoMoon.io -->
<svg version="1.1" xmlns="http://www.w3.org/2000/svg" width="32" height="32" viewBox="0 0 32 32">
<title>app-info</title>
<path d="M24.043 0.245h-16.043c-1.568 0-2.848 1.269-2.848 2.848v25.781c0 1.568 1.269 2.848 2.848 2.848h16.043c1.568 0 2.848-1.269 2.848-2.848v-25.781c-0.011-1.579-1.28-2.848-2.848-2.848zM16.021 30.741c-1.003 0-1.803-0.811-1.803-1.803 0-1.003 0.811-1.803 1.803-1.803 1.003 0 1.803 0.811 1.803 1.803s-0.811 1.803-1.803 1.803zM25.397 25.067c0 0.789-0.64 1.419-1.419 1.419h-15.915c-0.789 0-1.419-0.64-1.419-1.419v-21.835c0-0.789 0.64-1.419 1.419-1.419h15.915c0.789 0 1.419 0.64 1.419 1.419v21.835zM13.856 6.293c0-1.195 0.992-2.133 2.165-2.133 1.195 0 2.165 0.939 2.165 2.133s-0.971 2.165-2.165 2.165c-1.163 0-2.165-0.971-2.165-2.165zM14.229 9.941h3.616v13.739h-3.616v-13.739z"></path>
</svg>
