<!-- Generated by IcoMoon.io -->
<svg
        version="1.1"
        xmlns="http://www.w3.org/2000/svg"
        width="32"
        height="32"
        viewBox="0 0 32 32">
    <title>Arrow</title>
    <path d="M3.738 18.842h17.664l-8.051 8.051c-1.114 1.114-1.114 2.906 0 4.019s2.906 1.114 4.019 0l12.902-12.902c0.128-0.128 0.256-0.282 0.358-0.435 0.038-0.064 0.064-0.128 0.102-0.205 0.051-0.090 0.115-0.192 0.154-0.294 0.038-0.077 0.051-0.166 0.077-0.256s0.064-0.179 0.077-0.282c0.026-0.141 0.038-0.294 0.038-0.435 0-0.038 0.013-0.077 0.013-0.115s-0.013-0.090-0.013-0.128c-0.013-0.141-0.013-0.282-0.038-0.422-0.013-0.102-0.051-0.192-0.090-0.294-0.026-0.077-0.038-0.154-0.077-0.243-0.038-0.115-0.102-0.218-0.166-0.32-0.038-0.064-0.064-0.115-0.090-0.179-0.102-0.154-0.23-0.307-0.358-0.435l-12.89-12.877c-0.55-0.55-1.28-0.832-2.010-0.832s-1.459 0.282-2.010 0.832c-1.114 1.114-1.114 2.906 0 4.019l8.051 8.051h-17.664c-1.562 0-2.842 1.28-2.842 2.842s1.267 2.842 2.842 2.842z"></path>
</svg>
