<!-- Generated by IcoMoon.io -->
<svg version="1.1" xmlns="http://www.w3.org/2000/svg" width="32" height="32" viewBox="0 0 32 32">
<title>burger-1</title>
<path d="M24.072 18.56h-21.176c-1.392 0-2.512-1.12-2.512-2.512v0c0-1.384 1.128-2.512 2.512-2.512h21.184c1.384 0 2.512 1.128 2.512 2.512v0c-0.008 1.392-1.128 2.512-2.52 2.512zM28.96 28.448h-26.064c-1.384 0-2.512-1.128-2.512-2.512v0c0-1.384 1.128-2.512 2.512-2.512h26.064c1.384 0 2.512 1.128 2.512 2.512v0c0 1.392-1.128 2.512-2.512 2.512zM28.96 8.672h-26.064c-1.392 0-2.512-1.128-2.512-2.512v0c0-1.384 1.128-2.512 2.512-2.512h26.064c1.384 0 2.512 1.128 2.512 2.512v0c0 1.384-1.128 2.512-2.512 2.512z"></path>
</svg>
