<svg width="24" height="24" viewBox="0 0 24 24" fill="none" xmlns="http://www.w3.org/2000/svg">
<path d="M19.3964 2H5.6088C4.72653 2 4 2.72542 4 3.61818V17.6363C4 18.1575 4.24614 18.6193 4.63019 18.9191V21.4663C4.63019 21.7602 4.87039 22 5.1647 22H7.10344C7.39775 22 7.63795 21.7602 7.63795 21.4663V19.5306H17.3079V21.4604C17.3079 21.7542 17.5481 21.9941 17.8424 21.9941H19.7871C20.0814 21.9941 20.3216 21.7542 20.3216 21.4604V18.9435C20.7301 18.6496 21 18.1706 21 17.6251V3.61884C21.0059 2.72607 20.2794 2.00066 19.3971 2.00066L19.3964 2ZM7.63135 5.08088V3.69659H7.63729C7.6551 3.50486 7.81744 3.36123 8.0154 3.36123H16.9892C17.1871 3.36123 17.3495 3.51079 17.3673 3.69659H17.3732V5.45841H7.63135V5.08088ZM7.53567 17.3602C6.9774 17.3602 6.52736 16.9109 6.52736 16.3535C6.52736 15.7961 6.9774 15.3467 7.53567 15.3467C8.09393 15.3467 8.54397 15.7961 8.54397 16.3535C8.54991 16.9109 8.09393 17.3602 7.53567 17.3602ZM17.4636 17.3602C16.9054 17.3602 16.4553 16.9109 16.4553 16.3535C16.4553 15.7961 16.9054 15.3467 17.4636 15.3467C18.0219 15.3467 18.4719 15.7961 18.4719 16.3535C18.4779 16.9109 18.0219 17.3602 17.4636 17.3602ZM19.57 13.6449H5.44647V6.90858H19.57V13.6449Z" fill="currentColor"/>
</svg>
