<?xml version="1.0" encoding="UTF-8" standalone="no"?>
<!DOCTYPE svg PUBLIC "-//W3C//DTD SVG 1.1//EN" "http://www.w3.org/Graphics/SVG/1.1/DTD/svg11.dtd">
<svg width="100%" height="100%" viewBox="0 0 24 24" version="1.1" xmlns="http://www.w3.org/2000/svg" xmlns:xlink="http://www.w3.org/1999/xlink" xml:space="preserve" xmlns:serif="http://www.serif.com/" style="fill-rule:evenodd;clip-rule:evenodd;stroke-linejoin:round;stroke-miterlimit:2;">
    <path d="M19.396,2L5.609,2C4.727,2 4,2.725 4,3.618L4,17.636C4,18.158 4.246,18.619 4.63,18.919L4.63,21.466C4.63,21.76 4.87,22 5.165,22L7.103,22C7.398,22 7.638,21.76 7.638,21.466L7.638,19.531L17.308,19.531L17.308,21.46C17.308,21.754 17.548,21.994 17.842,21.994L19.787,21.994C20.081,21.994 20.322,21.754 20.322,21.46L20.322,18.944C20.73,18.65 21,18.171 21,17.625L21,3.619C21.006,2.726 20.279,2.001 19.397,2.001L19.396,2ZM7.631,5.458L7.631,3.697L7.637,3.697C7.655,3.505 7.817,3.361 8.015,3.361L16.989,3.361C17.187,3.361 17.35,3.511 17.367,3.697L17.373,3.697L17.373,5.458L7.631,5.458ZM7.536,17.36C6.977,17.36 6.527,16.911 6.527,16.354C6.527,15.796 6.977,15.347 7.536,15.347C8.094,15.347 8.544,15.796 8.544,16.354C8.55,16.911 8.094,17.36 7.536,17.36ZM17.464,17.36C16.905,17.36 16.455,16.911 16.455,16.354C16.455,15.796 16.905,15.347 17.464,15.347C18.022,15.347 18.472,15.796 18.472,16.354C18.478,16.911 18.022,17.36 17.464,17.36ZM19.57,13.645L5.446,13.645L5.446,6.909L19.57,6.909L19.57,13.645Z" style="fill-rule:nonzero;"/>
</svg>
