<!-- Generated by IcoMoon.io -->
<svg version="1.1" xmlns="http://www.w3.org/2000/svg" width="32" height="32" viewBox="0 0 32 32">
<title>clock</title>
<path d="M16 31.859c-8.744 0-15.859-7.116-15.859-15.859s7.116-15.859 15.859-15.859c8.744 0 15.859 7.116 15.859 15.859s-7.116 15.859-15.859 15.859zM16 2.297c-7.556 0-13.703 6.147-13.703 13.703s6.147 13.703 13.703 13.703c7.556 0 13.703-6.147 13.703-13.703s-6.147-13.703-13.703-13.703zM22.538 23.575c-0.288 0-0.553-0.109-0.753-0.309l-6.553-6.553c-0.031-0.031-0.066-0.072-0.094-0.103l-0.012-0.016-0.044-0.087c-0.022-0.047-0.037-0.072-0.047-0.084l-0.034-0.053v-0.003l-0.019-0.106-0.028-0.056-0.006-0.028c-0.012-0.050-0.012-0.091-0.012-0.109v-0.009l0.003-0.038v-7.275c0-0.591 0.481-1.072 1.072-1.072s1.072 0.481 1.072 1.072v6.787l6.219 6.219c0.409 0.422 0.413 1.1 0.003 1.512l-0.003 0.003c-0.203 0.2-0.475 0.309-0.762 0.309z"></path>
</svg>
