<!-- Generated by IcoMoon.io -->
<svg version="1.1" xmlns="http://www.w3.org/2000/svg" width="32" height="32" viewBox="0 0 32 32">
<title>customer-service</title>
<path d="M29.6 12.757c-0.267-3.083-1.28-5.664-3.051-7.701-3.712-4.277-9.333-4.48-9.568-4.491h-0.043c-5.131 0-9.013 1.525-11.552 4.523-2.048 2.432-2.805 5.365-3.040 7.733-1.227 0.587-2.080 1.835-2.080 3.285v5.333c0 2.005 1.632 3.637 3.637 3.637s3.637-1.632 3.637-3.637v-5.344c0-1.483-0.896-2.763-2.176-3.328 0.224-1.845 0.832-4.032 2.315-5.781 1.941-2.283 5.035-3.445 9.227-3.445 0.299 0.011 4.651 0.288 7.392 3.477 1.291 1.504 2.059 3.445 2.293 5.803-1.216 0.587-2.059 1.835-2.059 3.275v5.344c0 1.984 1.611 3.605 3.584 3.637 0.16 0.725 0.171 1.557-0.277 2.219-0.789 1.173-2.955 1.675-6.187 1.493l0.021-0.416c0.053-0.875-0.629-1.632-1.504-1.685l-1.504-0.085c-0.875-0.053-1.632 0.629-1.685 1.504l-0.085 1.504c-0.053 0.875 0.629 1.632 1.504 1.685l1.504 0.085c0.693 0.043 1.312-0.384 1.568-1.003 0.523 0.032 1.035 0.053 1.504 0.053 3.136 0 5.184-0.747 6.187-2.251 0.747-1.109 0.736-2.389 0.501-3.435 1.248-0.576 2.123-1.845 2.123-3.307v-5.344c0.021-1.493-0.896-2.784-2.187-3.339z"></path>
</svg>
