<!-- Generated by IcoMoon.io -->
<svg version="1.1" xmlns="http://www.w3.org/2000/svg" width="32" height="32" viewBox="0 0 32 32">
<title>customer-alerts</title>
<path d="M0.245 11.808v8.693c0 0.8 0.651 1.451 1.44 1.451h5.813l7.925 5.397c1.227 1.024 2.219 0.555 2.219-1.056v-20.288c0-1.6-1.003-2.069-2.219-1.056l-7.936 5.408h-5.813c-0.789 0-1.429 0.629-1.429 1.451zM27.093 5.739c0.437 0.587 0.875 1.301 1.28 2.112 1.173 2.347 1.888 5.12 1.888 8.299s-0.704 5.952-1.888 8.299c-0.405 0.821-0.853 1.525-1.28 2.112-0.256 0.352-0.448 0.576-0.555 0.683-0.277 0.288-0.267 0.747 0.021 1.024s0.747 0.267 1.024-0.021c0.149-0.149 0.384-0.427 0.672-0.821 0.48-0.651 0.96-1.429 1.419-2.325 1.28-2.549 2.037-5.536 2.037-8.949s-0.768-6.4-2.037-8.949c-0.448-0.896-0.928-1.675-1.419-2.325-0.299-0.405-0.533-0.672-0.672-0.821-0.277-0.288-0.736-0.299-1.024-0.021s-0.299 0.736-0.021 1.024c0.096 0.107 0.299 0.341 0.555 0.683zM23.904 8.469c0.277 0.523 0.555 1.12 0.821 1.781 0.747 1.877 1.184 3.883 1.184 5.899s-0.448 4.021-1.184 5.899c-0.256 0.661-0.544 1.259-0.821 1.781-0.16 0.309-0.288 0.523-0.352 0.629-0.213 0.341-0.117 0.789 0.213 1.003 0.341 0.213 0.789 0.117 1.003-0.213 0.085-0.139 0.235-0.384 0.416-0.725 0.299-0.565 0.608-1.216 0.885-1.931 0.8-2.037 1.291-4.213 1.291-6.432s-0.48-4.395-1.291-6.432c-0.277-0.715-0.587-1.355-0.885-1.931-0.181-0.341-0.331-0.597-0.416-0.725-0.213-0.341-0.661-0.437-1.003-0.213-0.341 0.213-0.437 0.661-0.213 1.003 0.064 0.096 0.192 0.299 0.352 0.608zM21.312 12.821c0.427 1.067 0.672 2.197 0.672 3.328s-0.256 2.261-0.672 3.328c-0.256 0.64-0.501 1.109-0.661 1.355-0.213 0.341-0.117 0.789 0.213 1.003 0.341 0.213 0.789 0.117 1.003-0.213 0.203-0.32 0.501-0.864 0.789-1.6 0.48-1.227 0.779-2.528 0.779-3.861s-0.288-2.645-0.779-3.861c-0.288-0.736-0.587-1.28-0.789-1.6-0.213-0.341-0.661-0.437-1.003-0.213-0.341 0.213-0.437 0.661-0.213 1.003 0.16 0.224 0.405 0.693 0.661 1.333z"></path>
</svg>
