<!-- Generated by IcoMoon.io -->
<svg version="1.1" xmlns="http://www.w3.org/2000/svg" width="25" height="32" viewBox="0 0 25 32">
<title>delete</title>
<path d="M2.375 9.288v-3.2h20.583v3.2h-20.583zM9.262 2.537c0-0.117 0.079-0.195 0.198-0.195h6.373c0.119 0 0.198 0.078 0.198 0.195v1.21h-6.769v-1.21zM18.683 29.385h-12.033c-1.108 0-1.979-0.859-1.979-1.951v-15.805h15.992v15.805c0 1.054-0.91 1.951-1.979 1.951zM2.296 11.59v15.805c0 2.381 1.94 4.293 4.354 4.293h12.033c2.415 0 4.354-1.912 4.354-4.293v-15.805c1.267-0.039 2.296-1.093 2.296-2.341v-3.161c0-1.288-1.069-2.341-2.375-2.341h-4.512v-1.21c0-1.405-1.148-2.537-2.573-2.537h-6.412c-1.425 0-2.573 1.132-2.573 2.537v1.21h-4.513c-1.306 0-2.375 1.054-2.375 2.341v3.2c0 1.249 1.029 2.263 2.296 2.302zM15.556 25.99h2.375v-11.395h-2.375zM11.479 25.99h2.375v-11.395h-2.375zM7.402 25.99h2.375v-11.395h-2.375z"></path>
</svg>
