<!-- Generated by IcoMoon.io -->
<svg version="1.1" xmlns="http://www.w3.org/2000/svg" width="32" height="32" viewBox="0 0 32 32">
<title>facebook</title>
<path d="M29.766 0.454h-27.558c-0.947 0-1.709 0.762-1.709 1.709v27.558c0 0.947 0.768 1.709 1.709 1.709h14.835v-12h-4.038v-4.672h4.038v-3.45c0-4 2.445-6.182 6.010-6.182 1.709 0 3.181 0.128 3.61 0.186v4.179h-2.477c-1.939 0-2.317 0.922-2.317 2.278v2.982h4.627l-0.602 4.672h-4.026v11.994h7.891c0.947 0 1.709-0.768 1.709-1.709v-27.546c0.006-0.947-0.762-1.709-1.702-1.709z"></path>
</svg>
