<!-- Generated by IcoMoon.io -->
<svg version="1.1" xmlns="http://www.w3.org/2000/svg" width="32" height="32" viewBox="0 0 32 32">
<title>faq</title>
<path d="M15.957 0.181c-8.693 0-15.733 7.040-15.733 15.733s7.040 15.733 15.733 15.733c8.693 0 15.733-7.040 15.733-15.733s-7.051-15.733-15.733-15.733zM16.053 26.112c-1.259 0-2.315-1.056-2.315-2.315s1.056-2.315 2.315-2.315 2.315 1.056 2.315 2.315c0 1.259-1.056 2.315-2.315 2.315zM19.168 15.413c-1.003 0.747-1.888 1.376-1.888 2.432 0 0.459 0.224 0.949 0.512 1.205l-3.115 0.917c-0.597-0.661-0.949-1.515-0.949-2.517 0-1.973 1.376-2.923 2.517-3.744 0.885-0.629 1.664-1.173 1.664-2.027 0-0.885-0.661-1.632-2.229-1.632-1.429 0-2.635 0.715-3.52 1.771l-2.315-2.613c1.515-1.771 3.808-2.773 6.261-2.773 3.691 0 5.952 1.856 5.952 4.523 0 2.368-1.515 3.509-2.891 4.459z"></path>
</svg>
