<!-- Generated by IcoMoon.io -->
<svg version="1.1" xmlns="http://www.w3.org/2000/svg" width="217" height="32" viewBox="0 0 217 32">
<title>fl-mtickets</title>
<path d="M1.247 1.001h14.932v5.583h-9.25v5.464h9.25v5.504h-9.25v13.547h-5.683v-30.097zM20.867 1.001h5.689v30.097h-5.689v-30.097zM44.453 8.832h2.864v3.846c0.995-1.419 2.022-2.453 3.070-3.11 1.446-0.875 2.971-1.306 4.569-1.306 1.081 0 2.102 0.212 3.070 0.637s1.764 0.988 2.374 1.691c0.617 0.703 1.147 1.711 1.598 3.017 0.955-1.744 2.142-3.070 3.574-3.978s2.964-1.359 4.615-1.359c1.538 0 2.898 0.391 4.071 1.167s2.049 1.863 2.626 3.256c0.57 1.392 0.855 3.481 0.855 6.259v12.154h-2.924v-12.161c0-2.387-0.172-4.025-0.511-4.92s-0.922-1.611-1.744-2.162c-0.822-0.544-1.804-0.816-2.944-0.816-1.386 0-2.652 0.411-3.806 1.227-1.147 0.816-1.989 1.91-2.52 3.276s-0.796 3.64-0.796 6.836v8.713h-2.864v-11.398c0-2.685-0.166-4.509-0.504-5.47-0.332-0.961-0.915-1.731-1.751-2.314-0.829-0.577-1.823-0.869-2.964-0.869-1.326 0-2.559 0.398-3.713 1.2-1.154 0.796-2.002 1.87-2.559 3.223-0.55 1.353-0.829 3.415-0.829 6.2v9.429h-2.864v-22.266zM81.054 1.001h16.63v5.649h-5.484v24.448h-5.809v-24.454h-5.338v-5.643zM103.181-0.332c0.981 0 1.817 0.358 2.52 1.061 0.703 0.71 1.048 1.571 1.048 2.579 0 0.995-0.345 1.843-1.041 2.546s-1.525 1.054-2.487 1.054c-0.995 0-1.837-0.358-2.54-1.074s-1.048-1.585-1.048-2.606c0-0.981 0.345-1.823 1.041-2.52 0.69-0.696 1.525-1.041 2.506-1.041zM100.39 8.832h5.583v22.259h-5.583v-22.259zM132.834 13.334l-4.648 2.559c-0.875-0.915-1.737-1.545-2.593-1.903-0.855-0.351-1.857-0.53-3.004-0.53-2.089 0-3.78 0.623-5.073 1.87s-1.936 2.845-1.936 4.787c0 1.896 0.623 3.441 1.863 4.635 1.24 1.2 2.878 1.797 4.894 1.797 2.5 0 4.443-0.855 5.835-2.559l4.403 3.017c-2.387 3.103-5.755 4.655-10.105 4.655-3.912 0-6.982-1.16-9.197-3.481s-3.322-5.033-3.322-8.143c0-2.155 0.537-4.138 1.618-5.954 1.074-1.817 2.579-3.242 4.509-4.277s4.091-1.552 6.478-1.552c2.208 0 4.197 0.438 5.954 1.32 1.77 0.889 3.209 2.135 4.323 3.76zM137.913 0.239h5.583v17.77l8.222-9.177h7.015l-9.588 10.669 10.735 11.591h-6.936l-9.449-10.258v10.258h-5.583v-30.853zM184.474 21.583h-17.943c0.259 1.585 0.948 2.838 2.075 3.773s2.559 1.399 4.303 1.399c2.089 0 3.879-0.729 5.378-2.188l4.708 2.208c-1.174 1.664-2.579 2.898-4.217 3.693s-3.581 1.2-5.828 1.2c-3.494 0-6.332-1.101-8.534-3.302-2.195-2.201-3.295-4.96-3.295-8.275 0-3.395 1.094-6.213 3.282-8.461 2.188-2.241 4.933-3.368 8.235-3.368 3.508 0 6.359 1.121 8.554 3.368 2.195 2.241 3.295 5.205 3.295 8.892l-0.013 1.061zM178.891 17.18c-0.371-1.24-1.094-2.248-2.182-3.030-1.087-0.776-2.347-1.167-3.78-1.167-1.558 0-2.924 0.438-4.098 1.306-0.736 0.544-1.419 1.505-2.049 2.884h12.108zM189.673 0.63h5.583v8.202h3.315v4.807h-3.315v17.452h-5.583v-17.452h-2.864v-4.807h2.864v-8.202zM215.181 11.942l-3.455 3.455c-1.406-1.392-2.679-2.089-3.826-2.089-0.63 0-1.121 0.133-1.472 0.398-0.358 0.265-0.53 0.597-0.53 0.995 0 0.298 0.113 0.577 0.338 0.829s0.782 0.597 1.664 1.034l2.049 1.021c2.155 1.061 3.634 2.148 4.443 3.256 0.802 1.107 1.207 2.4 1.207 3.886 0 1.976-0.729 3.627-2.182 4.953s-3.402 1.983-5.842 1.983c-3.249 0-5.835-1.266-7.771-3.806l3.435-3.746c0.656 0.763 1.419 1.379 2.301 1.85s1.658 0.703 2.341 0.703c0.736 0 1.333-0.179 1.777-0.53 0.451-0.351 0.676-0.763 0.676-1.227 0-0.862-0.809-1.697-2.434-2.52l-1.883-0.942c-3.601-1.817-5.404-4.085-5.404-6.81 0-1.757 0.676-3.262 2.036-4.509s3.090-1.87 5.205-1.87c1.446 0 2.805 0.318 4.085 0.948 1.28 0.643 2.361 1.552 3.242 2.739z"></path>
</svg>
