<!-- Generated by IcoMoon.io -->
<svg version="1.1" xmlns="http://www.w3.org/2000/svg" width="32" height="32" viewBox="0 0 32 32">
<title>Info_circle</title>
<path d="M17.841 23.075c0 1.478-0.825 2.688-1.831 2.688s-1.831-1.209-1.831-2.688v-7.975c0-1.478 0.825-2.688 1.831-2.688s1.831 1.209 1.831 2.688v7.975zM13.653 8.606c0 1.3 1.053 2.353 2.353 2.353s2.353-1.053 2.353-2.353-1.053-2.353-2.353-2.353-2.353 1.053-2.353 2.353zM31.947 16.009c0-8.787-7.15-15.938-15.938-15.938s-15.938 7.15-15.938 15.938 7.15 15.938 15.938 15.938 15.938-7.15 15.938-15.938zM29.462 16.009c0 7.419-6.034 13.456-13.456 13.456s-13.453-6.037-13.453-13.456c0-7.419 6.037-13.456 13.456-13.456s13.453 6.037 13.453 13.456z"></path>
</svg>
