<svg width="131" height="47" viewBox="0 0 131 47" xmlns="http://www.w3.org/2000/svg">
<path fill-rule="evenodd" clip-rule="evenodd" d="M50.6955 8.17642V8.93386H52.4206V0.124268H50.547V3.74832H50.5241C50.3642 3.5541 50.1395 3.37543 49.8501 3.21228C49.5607 3.04914 49.2065 2.96757 48.7876 2.96757C48.3763 2.96757 48.0031 3.04914 47.668 3.21228C47.3405 3.37543 47.0587 3.59683 46.8226 3.8765C46.5941 4.15617 46.4151 4.48245 46.2857 4.85534C46.1638 5.22047 46.1029 5.60501 46.1029 6.00898C46.1029 6.41295 46.1638 6.80138 46.2857 7.17427C46.4075 7.54716 46.5827 7.87733 46.8112 8.16476C47.0473 8.44443 47.3329 8.66972 47.668 8.84063C48.0031 9.01154 48.384 9.097 48.8105 9.097C49.1913 9.097 49.5492 9.01931 49.8844 8.86394C50.2271 8.7008 50.4899 8.47162 50.6727 8.17642H50.6955ZM50.5241 5.47295C50.5927 5.65162 50.6269 5.83419 50.6269 6.02063C50.6269 6.20708 50.5927 6.38964 50.5241 6.56832C50.4632 6.747 50.3718 6.90625 50.2499 7.04609C50.1357 7.18592 49.9948 7.29857 49.8272 7.38402C49.6597 7.46948 49.4693 7.5122 49.256 7.5122C49.0352 7.5122 48.8409 7.46948 48.6734 7.38402C48.5058 7.29857 48.3649 7.18592 48.2507 7.04609C48.1364 6.90625 48.0488 6.747 47.9879 6.56832C47.9346 6.38187 47.9079 6.19543 47.9079 6.00898C47.9079 5.82253 47.9346 5.63997 47.9879 5.46129C48.0488 5.28262 48.1364 5.12724 48.2507 4.99518C48.3649 4.85534 48.5058 4.7427 48.6734 4.65724C48.8409 4.57179 49.0352 4.52906 49.256 4.52906C49.4693 4.52906 49.6597 4.57179 49.8272 4.65724C49.9948 4.7427 50.1357 4.85534 50.2499 4.99518C50.3718 5.13501 50.4632 5.29427 50.5241 5.47295ZM14.1689 6.00898C14.1689 6.48286 14.0851 6.91402 13.9175 7.30245C13.75 7.68311 13.5215 8.00939 13.2321 8.28129C12.9426 8.54543 12.6075 8.75129 12.2267 8.8989C11.8459 9.0465 11.4384 9.1203 11.0043 9.1203C10.5778 9.1203 10.1703 9.0465 9.78189 8.8989C9.40108 8.75129 9.06596 8.54543 8.77654 8.28129C8.49474 8.00939 8.27006 7.68311 8.1025 7.30245C7.93494 6.91402 7.85116 6.48286 7.85116 6.00898C7.85116 5.53509 7.93494 5.10782 8.1025 4.72716C8.27006 4.3465 8.49474 4.0241 8.77654 3.75997C9.06596 3.49584 9.40108 3.29385 9.78189 3.15402C10.1703 3.01419 10.5778 2.94427 11.0043 2.94427C11.4384 2.94427 11.8459 3.01419 12.2267 3.15402C12.6075 3.29385 12.9426 3.49584 13.2321 3.75997C13.5215 4.0241 13.75 4.3465 13.9175 4.72716C14.0851 5.10782 14.1689 5.53509 14.1689 6.00898ZM12.3638 6.00898C12.3638 5.82253 12.3333 5.63997 12.2724 5.46129C12.2115 5.28262 12.1239 5.12724 12.0097 4.99518C11.8954 4.85534 11.7545 4.7427 11.5869 4.65724C11.4194 4.57179 11.2252 4.52906 11.0043 4.52906C10.7834 4.52906 10.5892 4.57179 10.4217 4.65724C10.2541 4.7427 10.1132 4.85534 9.99895 4.99518C9.89233 5.12724 9.80855 5.28262 9.74762 5.46129C9.6943 5.63997 9.66765 5.82253 9.66765 6.00898C9.66765 6.19543 9.6943 6.37799 9.74762 6.55667C9.80855 6.73534 9.89613 6.89848 10.0104 7.04609C10.1246 7.18592 10.2655 7.29857 10.4331 7.38402C10.6006 7.46948 10.7949 7.5122 11.0157 7.5122C11.2366 7.5122 11.4308 7.46948 11.5984 7.38402C11.7659 7.29857 11.9068 7.18592 12.0211 7.04609C12.1353 6.89848 12.2191 6.73534 12.2724 6.55667C12.3333 6.37799 12.3638 6.19543 12.3638 6.00898ZM6.32913 6.00898C6.32913 6.41295 6.2682 6.80138 6.14634 7.17427C6.02448 7.54716 5.84549 7.87733 5.60939 8.16476C5.3809 8.44443 5.0991 8.66972 4.76398 8.84063C4.42887 9.01154 4.04805 9.097 3.62154 9.097C3.27119 9.097 2.93988 9.02708 2.62762 8.88724C2.31535 8.73964 2.07163 8.54154 1.89645 8.29295H1.8736V11.7306H0V3.13071H1.78221V3.84154H1.81648C1.99166 3.60848 2.23157 3.4065 2.53622 3.23559C2.84849 3.05691 3.21407 2.96757 3.63297 2.96757C4.04424 2.96757 4.41744 3.04914 4.75256 3.21228C5.08767 3.37543 5.36948 3.59683 5.59797 3.8765C5.83407 4.15617 6.01305 4.48245 6.13491 4.85534C6.26439 5.22047 6.32913 5.60501 6.32913 6.00898ZM4.51265 6.00898C4.51265 5.82253 4.48218 5.63997 4.42125 5.46129C4.36794 5.28262 4.28416 5.12724 4.16991 4.99518C4.06328 4.85534 3.92619 4.7427 3.75863 4.65724C3.59108 4.57179 3.39686 4.52906 3.17599 4.52906C2.96273 4.52906 2.77233 4.57179 2.60477 4.65724C2.43721 4.7427 2.2925 4.85534 2.17064 4.99518C2.0564 5.13501 1.965 5.29427 1.89645 5.47295C1.83552 5.65162 1.80506 5.83419 1.80506 6.02063C1.80506 6.20708 1.83552 6.38964 1.89645 6.56832C1.965 6.747 2.0564 6.90625 2.17064 7.04609C2.2925 7.18592 2.43721 7.29857 2.60477 7.38402C2.77233 7.46948 2.96273 7.5122 3.17599 7.5122C3.39686 7.5122 3.59108 7.46948 3.75863 7.38402C3.92619 7.29857 4.06328 7.18592 4.16991 7.04609C4.28416 6.90625 4.36794 6.747 4.42125 6.56832C4.48218 6.38187 4.51265 6.19543 4.51265 6.00898ZM21.3415 8.93386H23.2266L25.203 3.13071H23.2608L22.2669 6.80138H22.2441L21.193 3.13071H19.308L18.2912 6.80138H18.2569L17.2744 3.13071H15.2523L17.2173 8.93386H19.1023L20.1991 5.32146H20.2219L21.3415 8.93386ZM30.4821 5.36807C30.4821 5.06509 30.3869 4.80485 30.1965 4.58733C30.0137 4.36981 29.7357 4.26104 29.3625 4.26104C29.1797 4.26104 29.0122 4.29212 28.8599 4.35427C28.7075 4.40865 28.5743 4.48633 28.46 4.58733C28.3458 4.68832 28.2544 4.80873 28.1858 4.94857C28.1173 5.08063 28.0792 5.22047 28.0716 5.36807H30.4821ZM32.2072 6.1022V6.33526C32.2072 6.41295 32.2034 6.48675 32.1958 6.55667H28.0716C28.0868 6.71981 28.1325 6.86741 28.2087 6.99948C28.2924 7.13154 28.3953 7.24807 28.5171 7.34906C28.6466 7.44229 28.7875 7.51609 28.9398 7.57047C29.0998 7.62485 29.2635 7.65204 29.4311 7.65204C29.7281 7.65204 29.9795 7.59766 30.1851 7.4889C30.3907 7.37237 30.5583 7.22476 30.6878 7.04609L31.9902 7.88509C31.7236 8.28129 31.3694 8.58815 30.9277 8.80567C30.4936 9.01543 29.9871 9.1203 29.4082 9.1203C28.9817 9.1203 28.5781 9.05427 28.1972 8.9222C27.8164 8.78237 27.4813 8.58427 27.1919 8.32791C26.9101 8.06377 26.6854 7.74138 26.5179 7.36071C26.3579 6.98005 26.2779 6.54501 26.2779 6.05559C26.2779 5.58171 26.3579 5.15443 26.5179 4.77377C26.6778 4.38534 26.8949 4.05906 27.1691 3.79493C27.4432 3.52303 27.7669 3.31328 28.1401 3.16567C28.5133 3.01807 28.917 2.94427 29.3511 2.94427C29.77 2.94427 30.1546 3.01807 30.505 3.16567C30.8553 3.30551 31.1562 3.51138 31.4075 3.78328C31.6588 4.05518 31.8531 4.38534 31.9902 4.77377C32.1349 5.1622 32.2072 5.60501 32.2072 6.1022ZM37.4362 4.64559C37.52 4.65336 37.6038 4.6689 37.6875 4.6922L37.7675 3.01419C37.7218 2.99865 37.6609 2.987 37.5847 2.97923C37.5162 2.97146 37.4438 2.96757 37.3677 2.96757C37.0173 2.96757 36.7089 3.0608 36.4423 3.24724C36.1757 3.43369 35.9701 3.67452 35.8254 3.96972H35.8025V3.13071H33.9975V8.93386H35.8711V5.95071C35.8711 5.83419 35.8939 5.69824 35.9396 5.54286C35.9853 5.38749 36.0577 5.24377 36.1567 5.11171C36.2633 4.97964 36.4004 4.867 36.568 4.77377C36.7431 4.68055 36.9564 4.63394 37.2077 4.63394C37.2839 4.63394 37.36 4.63782 37.4362 4.64559ZM42.8732 5.36807C42.8732 5.06509 42.778 4.80485 42.5876 4.58733C42.4048 4.36981 42.1268 4.26104 41.7536 4.26104C41.5708 4.26104 41.4032 4.29212 41.2509 4.35427C41.0986 4.40865 40.9653 4.48633 40.851 4.58733C40.7368 4.68832 40.6454 4.80873 40.5769 4.94857C40.5083 5.08063 40.4702 5.22047 40.4626 5.36807H42.8732ZM44.5982 6.1022V6.33526C44.5982 6.41295 44.5944 6.48675 44.5868 6.55667H40.4626C40.4778 6.71981 40.5235 6.86741 40.5997 6.99948C40.6835 7.13154 40.7863 7.24807 40.9082 7.34906C41.0376 7.44229 41.1785 7.51609 41.3309 7.57047C41.4908 7.62485 41.6546 7.65204 41.8221 7.65204C42.1192 7.65204 42.3705 7.59766 42.5761 7.4889C42.7818 7.37237 42.9493 7.22476 43.0788 7.04609L44.3812 7.88509C44.1146 8.28129 43.7605 8.58815 43.3187 8.80567C42.8846 9.01543 42.3781 9.1203 41.7993 9.1203C41.3728 9.1203 40.9691 9.05427 40.5883 8.9222C40.2075 8.78237 39.8723 8.58427 39.5829 8.32791C39.3011 8.06377 39.0765 7.74138 38.9089 7.36071C38.749 6.98005 38.669 6.54501 38.669 6.05559C38.669 5.58171 38.749 5.15443 38.9089 4.77377C39.0688 4.38534 39.2859 4.05906 39.5601 3.79493C39.8343 3.52303 40.158 3.31328 40.5312 3.16567C40.9044 3.01807 41.308 2.94427 41.7421 2.94427C42.161 2.94427 42.5457 3.01807 42.896 3.16567C43.2464 3.30551 43.5472 3.51138 43.7985 3.78328C44.0499 4.05518 44.2441 4.38534 44.3812 4.77377C44.5259 5.1622 44.5982 5.60501 44.5982 6.1022ZM64.3614 6.00898C64.3614 6.41295 64.3005 6.80138 64.1786 7.17427C64.0568 7.54716 63.8778 7.87733 63.6417 8.16476C63.4132 8.44443 63.1314 8.66972 62.7963 8.84063C62.4612 9.01154 62.0803 9.097 61.6538 9.097C61.273 9.097 60.9112 9.01931 60.5685 8.86394C60.2334 8.7008 59.9744 8.47162 59.7917 8.17642H59.7688V8.93386H58.0437V0.124268H59.9173V3.74832H59.9402C60.1001 3.5541 60.3248 3.37543 60.6142 3.21228C60.9036 3.04914 61.2578 2.96757 61.6767 2.96757C62.088 2.96757 62.4574 3.04914 62.7849 3.21228C63.12 3.37543 63.4018 3.59683 63.6303 3.8765C63.8664 4.15617 64.0453 4.48245 64.1672 4.85534C64.2967 5.22047 64.3614 5.60501 64.3614 6.00898ZM62.5564 6.00898C62.5564 5.82253 62.5259 5.63997 62.465 5.46129C62.4117 5.28262 62.3279 5.12724 62.2136 4.99518C62.0994 4.85534 61.9585 4.7427 61.7909 4.65724C61.6234 4.57179 61.4291 4.52906 61.2083 4.52906C60.995 4.52906 60.8046 4.57179 60.6371 4.65724C60.4695 4.7427 60.3248 4.85534 60.2029 4.99518C60.0887 5.13501 59.9973 5.29427 59.9287 5.47295C59.8678 5.65162 59.8374 5.83419 59.8374 6.02063C59.8374 6.20708 59.8678 6.38964 59.9287 6.56832C59.9973 6.747 60.0887 6.90625 60.2029 7.04609C60.3248 7.18592 60.4695 7.29857 60.6371 7.38402C60.8046 7.46948 60.995 7.5122 61.2083 7.5122C61.4291 7.5122 61.6234 7.46948 61.7909 7.38402C61.9585 7.29857 62.0994 7.18592 62.2136 7.04609C62.3279 6.90625 62.4117 6.747 62.465 6.56832C62.5259 6.38187 62.5564 6.19543 62.5564 6.00898ZM69.0018 10.6119C69.1465 10.3788 69.276 10.1108 69.3902 9.80782L71.9379 3.13071H69.95L68.819 6.85964H68.7847L67.5166 3.13071H65.4374L67.8137 8.84063L67.6309 9.3184C67.5395 9.567 67.429 9.75733 67.2996 9.88939C67.1701 10.0292 66.9606 10.0991 66.6712 10.0991C66.5798 10.0991 66.477 10.0875 66.3627 10.0642C66.2561 10.0486 66.1571 10.0253 66.0657 9.99427L65.8601 11.6024C65.9972 11.6412 66.1571 11.6723 66.3399 11.6956C66.5303 11.7189 66.7131 11.7306 66.8883 11.7306C67.2462 11.7306 67.5547 11.6878 67.8137 11.6024C68.0802 11.5169 68.3087 11.3887 68.4991 11.2178C68.6971 11.0547 68.8647 10.8527 69.0018 10.6119ZM5.7032 36.7278C6.9992 39.2368 9.19251 41.2087 11.8679 42.155C14.5515 43.1037 17.4677 42.9369 20.002 41.7766C20.0501 42.6721 20.3787 43.5613 20.9999 44.2943C21.3793 44.742 21.8306 45.087 22.3199 45.3286C20.1869 46.4268 17.83 47 15.453 47C13.7935 47 12.1259 46.7227 10.5178 46.1542C6.61646 44.7745 3.46103 41.8085 1.73419 38.0577C2.26441 38.175 2.82664 38.1876 3.39444 38.0751C4.32603 37.891 5.12248 37.4001 5.7032 36.7278ZM24.0434 39.1009C25.4057 39.1009 26.478 40.1986 26.478 41.5928C26.478 41.8289 26.4449 42.0556 26.3872 42.2708C26.1317 43.2242 25.3486 43.9327 24.3654 44.0615C24.2599 44.0752 24.153 44.0849 24.0434 44.0849C22.6811 44.0849 21.6088 42.9871 21.6088 41.5928C21.6088 41.3064 21.6562 41.0336 21.7399 40.7791C22.017 39.9376 22.7128 39.3096 23.586 39.1449C23.734 39.1171 23.8865 39.1009 24.0434 39.1009ZM23.7607 18.4509C29.4594 22.251 32.1416 29.6726 29.8223 36.5431C29.3588 37.9161 28.7098 39.2095 27.9036 40.3883C27.7395 39.8536 27.4683 39.3428 27.0857 38.8912C26.4669 38.1612 25.6575 37.7033 24.8025 37.5262C25.259 36.7885 25.6335 35.995 25.9149 35.1614C27.5446 30.3331 25.7792 25.1324 21.9212 22.291C22.6532 21.8027 23.2399 21.069 23.5486 20.1546C23.7395 19.5887 23.8046 19.0104 23.7607 18.4509ZM2.625 31.5105C3.36553 31.5105 4.01871 31.8365 4.46218 32.3567C4.83455 32.7932 5.0596 33.3661 5.0596 34.0024C5.0596 34.2911 5.01134 34.566 4.92625 34.8222C4.60064 35.8031 3.70497 36.4944 2.625 36.4944C1.93844 36.4944 1.32615 36.2153 0.887037 35.7603C0.454687 35.3124 0.190407 34.6941 0.190407 34.0024C0.190407 33.6623 0.255048 33.3402 0.371404 33.047C0.731745 32.1384 1.59509 31.5105 2.625 31.5105ZM16.8328 15.9898C16.4575 16.4039 16.1569 16.903 15.9645 17.4728C15.6572 18.383 15.6748 19.3267 15.952 20.1701C15.79 20.1628 15.6279 20.1585 15.4659 20.1585C13.8147 20.1585 12.172 20.5422 10.6433 21.3034C7.99011 22.6243 5.99839 24.9236 5.03493 27.7778C4.75787 28.5985 4.57582 29.4449 4.48818 30.2993C3.70466 29.8968 2.78734 29.7454 1.85605 29.9295C1.28765 30.042 0.769765 30.2686 0.320128 30.5805C0.400404 29.1619 0.669495 27.7531 1.12755 26.3959C2.45166 22.4736 5.18871 19.3137 8.83497 17.4985C11.3583 16.2419 14.1082 15.7343 16.8328 15.9898ZM19.7567 16.3207C20.5584 16.3207 21.2577 16.7027 21.6991 17.3C22.0077 17.7174 22.1913 18.239 22.1913 18.8126C22.1913 20.0455 21.352 21.0452 20.2159 21.2603C20.0672 21.2884 19.9142 21.3046 19.7567 21.3046C19.0083 21.3046 18.3488 20.9719 17.9052 20.4423C17.5412 20.0077 17.3221 19.4409 17.3221 18.8126C17.3221 17.631 18.0936 16.6652 19.1577 16.3971C19.3493 16.349 19.5489 16.3207 19.7567 16.3207ZM43.0204 25.0456V40.9737C43.0204 42.6494 42.5946 43.8315 41.7434 44.5202C40.892 45.2086 39.6894 45.5531 38.1364 45.5531H36.4751V41.9442H37.4918C38.3509 41.9442 38.7808 41.621 38.7808 40.9737V25.0456H43.0204ZM49.5353 25.0456V32.2707C49.5353 32.858 49.5937 33.7686 50.2667 34.3854C50.5593 34.6497 51.086 35.0021 52.0222 35.0021C52.8122 35.0021 53.4266 34.7378 53.8069 34.3854C54.4214 33.798 54.5092 32.9168 54.5092 32.2707V25.0456H58.7223V32.682C58.7223 34.1798 58.576 35.5895 57.2594 36.8818C55.7673 38.3505 53.5729 38.5853 52.0222 38.5853C50.4131 38.5853 48.2479 38.3505 46.7557 36.8818C45.5561 35.7071 45.3221 34.3854 45.3221 32.9463V25.0456H49.5353ZM66.0022 24.605C67.9335 24.605 69.2792 25.1043 70.3325 25.7211L68.6647 28.3939C68.0211 28.012 67.1726 27.6596 66.3534 27.6596C65.9146 27.6596 65.4172 27.777 65.1538 28.0414C65.0075 28.1883 64.8905 28.4231 64.8905 28.6288C64.8905 28.9225 65.0953 29.0987 65.3001 29.2163C65.4987 29.3359 65.7648 29.4149 66.0801 29.5084C66.2291 29.5527 66.3892 29.6002 66.5583 29.6568L67.67 30.0093C68.4014 30.2441 69.1621 30.538 69.8352 31.1546C70.5959 31.8595 70.859 32.6525 70.859 33.6511C70.859 35.384 70.0985 36.5001 69.5133 37.0874C68.2259 38.3797 66.646 38.5853 65.2708 38.5853C63.5153 38.5853 61.6135 38.2036 59.9166 36.7056L61.7013 33.8566C62.1109 34.2091 62.6961 34.6204 63.1349 34.826C63.7201 35.1197 64.3346 35.2371 64.8905 35.2371C65.1538 35.2371 65.8267 35.2371 66.2072 34.9435C66.4705 34.7378 66.646 34.4148 66.646 34.0917C66.646 33.8566 66.5583 33.5631 66.1777 33.3281C65.8853 33.1518 65.505 33.0344 64.8905 32.8581L63.8371 32.5352C63.0765 32.3001 62.2865 31.889 61.7306 31.3308C61.1161 30.6847 60.7944 29.9505 60.7944 28.9518C60.7944 27.689 61.2918 26.6315 62.0525 25.9267C63.2227 24.8399 64.8027 24.605 66.0022 24.605ZM115.212 16.7338V38.1449H110.999V36.5589C110.355 37.4985 109.185 38.5853 106.873 38.5853C104.942 38.5853 103.538 37.9686 102.397 36.7937C101.051 35.4426 100.349 33.563 100.349 31.5364C100.349 29.363 101.139 27.5715 102.397 26.3673C103.538 25.2806 105.147 24.6051 106.932 24.6051C108.365 24.6051 109.945 25.075 110.999 26.5141V16.7338H115.212ZM123.737 24.605C125.2 24.605 127.306 24.8695 128.915 26.5729C130.466 28.2176 130.759 30.2736 130.759 31.889V32.3295H121.016C121.016 33.0344 121.279 33.9742 121.806 34.5616C122.449 35.2665 123.327 35.384 123.971 35.384C124.585 35.384 125.229 35.2665 125.668 35.0022C125.726 34.9728 126.224 34.6498 126.575 33.9154L130.554 34.3267C129.969 36.1769 128.798 37.1462 128.038 37.6163C126.779 38.3798 125.375 38.5853 123.912 38.5853C121.952 38.5853 120.226 38.233 118.704 36.7056C117.563 35.5604 116.744 33.8274 116.744 31.6539C116.744 29.7743 117.417 27.8358 118.733 26.4848C120.313 24.8987 122.274 24.605 123.737 24.605ZM78.07 20.8163V25.0455H80.674V28.4525H78.07V38.1448H73.857V28.4525H72.3941V25.0455H73.857V20.8163H78.07ZM90.9571 24.7225C91.4839 24.7225 91.8643 24.7813 92.3322 24.9281L92.0982 28.8931C91.5423 28.5994 90.9279 28.4232 90.1965 28.4232C89.2893 28.4232 88.6166 28.7463 88.0898 29.3042C87.1537 30.3028 87.0657 31.7128 87.0657 32.8288V38.1449H82.8527V25.0456H87.0657V27.1015C87.4463 26.3673 88.0314 25.6917 88.7042 25.2806C89.4065 24.84 90.1378 24.7225 90.9571 24.7225ZM98.4831 25.0455V38.1448H94.27V25.0455H98.4831ZM107.956 28.2469C107.107 28.2469 106.376 28.482 105.703 29.1281C105.089 29.7155 104.679 30.5673 104.679 31.6247C104.679 32.5937 105.089 33.4456 105.703 34.0329C106.347 34.6498 107.166 34.9435 107.897 34.9435C108.687 34.9435 109.624 34.6204 110.297 33.9742C110.794 33.5043 111.262 32.7113 111.262 31.6247C111.262 30.5085 110.823 29.7449 110.326 29.2163C109.653 28.5113 108.863 28.2469 107.956 28.2469ZM124.029 27.5421C122.947 27.5421 122.303 27.9828 121.893 28.3939C121.572 28.7462 121.279 29.2163 121.162 29.8036H126.867C126.838 29.6862 126.633 28.8638 126.019 28.2763C125.551 27.8358 124.878 27.5421 124.029 27.5421ZM96.3765 16.998C97.7515 16.998 98.8343 18.0847 98.8343 19.4652C98.8343 20.8457 97.7515 21.9323 96.3765 21.9323C95.0013 21.9323 93.9189 20.8457 93.9189 19.4652C93.9189 18.0847 95.0013 16.998 96.3765 16.998ZM40.9006 16.9981C42.2758 16.9981 43.3582 18.0847 43.3582 19.4651C43.3582 20.8456 42.2758 21.9323 40.9006 21.9323C39.5254 21.9323 38.4428 20.8456 38.4428 19.4651C38.4428 18.0847 39.5254 16.9981 40.9006 16.9981Z"/>
</svg>
