<!-- Generated by IcoMoon.io -->
<svg version="1.1" xmlns="http://www.w3.org/2000/svg" width="32" height="32" viewBox="0 0 32 32">
<title>large-plus</title>
<path d="M17.76 14.24v-5.28c0-0.972-0.788-1.76-1.76-1.76s-1.76 0.788-1.76 1.76v5.28h-5.28c-0.972 0-1.76 0.788-1.76 1.76s0.788 1.76 1.76 1.76h5.28v5.28c0 0.972 0.788 1.76 1.76 1.76s1.76-0.788 1.76-1.76v-5.28h5.28c0.972 0 1.76-0.788 1.76-1.76s-0.788-1.76-1.76-1.76h-5.28zM16 32c-8.837 0-16-7.163-16-16s7.163-16 16-16c8.837 0 16 7.163 16 16s-7.163 16-16 16z"></path>
</svg>
