<!-- Generated by IcoMoon.io -->
<svg version="1.1" xmlns="http://www.w3.org/2000/svg" width="32" height="32" viewBox="0 0 32 32">
<title>my-tickets</title>
<path d="M31.898 20.41l-0.55-2.714c-0.147-0.717-0.8-1.235-1.504-1.216-0.064 0-1.638-0.064-2.214-2.899-0.557-2.72 0.774-3.213 0.909-3.251 0.73-0.186 1.178-0.915 1.030-1.664l-0.512-2.502c-0.077-0.371-0.288-0.691-0.602-0.902s-0.685-0.288-1.050-0.218l-26.176 5.146c-0.749 0.154-1.235 0.89-1.082 1.651l0.531 2.598c0.077 0.371 0.301 0.704 0.621 0.909 0.294 0.186 0.646 0.256 0.986 0.192 0.237 0.051 0.928 0.685 1.402 3.008 0.557 2.739-0.058 3.373-0.154 3.456-0.691 0.198-1.12 0.915-0.973 1.632l0.499 2.438c0.038 0.173 0.102 0.339 0.198 0.486 0.102 0.16 0.243 0.301 0.403 0.416 0.314 0.211 0.685 0.288 1.050 0.218l26.112-5.133c0.742-0.154 1.229-0.89 1.075-1.651zM23.309 21.696l-0.166-0.698c-0.077-0.333-0.403-0.538-0.73-0.461-0.326 0.070-0.525 0.397-0.448 0.73l0.154 0.666-17.395 3.418-0.352-1.734c0.678-0.346 1.862-1.51 1.069-5.402-0.435-2.131-1.146-3.526-2.112-4.141-0.371-0.237-0.71-0.32-0.973-0.333l-0.378-1.85 17.011-3.341 0.326 1.402c0.019 0.070 0.045 0.134 0.083 0.192 0.134 0.211 0.39 0.326 0.646 0.269 0.326-0.070 0.525-0.397 0.448-0.73l-0.32-1.37 7.213-1.421 0.371 1.805c-1.082 0.461-2.541 1.978-1.875 5.222 0.755 3.699 2.989 4.269 3.763 4.352l0.429 2.093-6.765 1.331zM21.126 12.371c-0.077-0.333-0.403-0.538-0.73-0.461-0.326 0.070-0.525 0.397-0.448 0.73l0.378 1.619c0.019 0.070 0.045 0.134 0.083 0.192 0.134 0.211 0.39 0.326 0.646 0.269 0.326-0.070 0.525-0.397 0.448-0.73l-0.378-1.619zM22.138 16.685c-0.077-0.326-0.403-0.538-0.73-0.461-0.326 0.070-0.525 0.397-0.448 0.73l0.378 1.619c0.019 0.070 0.045 0.134 0.083 0.192 0.134 0.211 0.39 0.326 0.646 0.269 0.326-0.070 0.525-0.397 0.448-0.73l-0.378-1.619z"></path>
</svg>
