<!-- Generated by IcoMoon.io -->
<svg version="1.1" xmlns="http://www.w3.org/2000/svg" width="32" height="32" viewBox="0 0 32 32">
<title>padlock</title>
<path d="M17.173 23.307c0.555-0.373 0.907-0.992 0.907-1.696 0-1.131-0.939-2.059-2.091-2.059s-2.091 0.917-2.091 2.059c0 0.757 0.416 1.429 1.045 1.781l-0.608 5.461 1.717-0.064 1.717 0.064-0.597-5.547zM15.648 0.213h0.832c4.757 0 8.619 3.861 8.619 8.619v5.824c1.941 0.107 3.2 0.203 3.2 0.203v16.373c0 0-6.315 0.437-12.373 0.437-6.24 0-12.224-0.437-12.224-0.437v-16.363c0 0 1.312-0.107 3.317-0.213v-5.824c0-4.757 3.861-8.619 8.629-8.619zM9.045 9.451v5.099c2.037-0.096 4.448-0.171 6.859-0.171 2.528 0 5.056 0.085 7.157 0.181v-5.109c0-3.957-3.104-7.189-7.008-7.381-3.893 0.203-7.008 3.424-7.008 7.381z"></path>
</svg>
