<!-- Generated by IcoMoon.io -->
<svg version="1.1" xmlns="http://www.w3.org/2000/svg" width="32" height="32" viewBox="0 0 32 32">
<title>password</title>
<path d="M31.078 9.542h-30.24c-0.397 0-0.717 0.32-0.717 0.717v11.686c0 0.397 0.32 0.717 0.717 0.717h30.24c0.397 0 0.717-0.32 0.717-0.717v-11.686c0-0.397-0.32-0.717-0.717-0.717zM30.362 10.976v10.253h-28.806v-10.253h28.806zM6.573 16.614l0.858 1.126-0.947 0.666-0.858-1.152-0.832 1.107-0.928-0.666 0.858-1.094-1.363-0.454 0.371-1.056 1.338 0.467v-1.37h1.158v1.37l1.338-0.422 0.358 1.056-1.35 0.422zM11.731 16.614l0.858 1.126-0.947 0.666-0.858-1.152-0.832 1.107-0.928-0.659 0.858-1.094-1.363-0.454 0.371-1.056 1.338 0.467v-1.37h1.158v1.37l1.338-0.422 0.358 1.056-1.35 0.416zM16.89 16.614l0.858 1.126-0.947 0.666-0.858-1.152-0.832 1.107-0.928-0.666 0.858-1.094-1.363-0.454 0.371-1.056 1.338 0.467v-1.37h1.158v1.37l1.338-0.422 0.358 1.056-1.35 0.422zM22.048 16.614l0.858 1.126-0.947 0.666-0.858-1.152-0.832 1.107-0.928-0.666 0.858-1.094-1.363-0.454 0.371-1.056 1.338 0.467v-1.37h1.158v1.37l1.338-0.422 0.358 1.056-1.35 0.422zM27.213 16.614l0.858 1.126-0.947 0.666-0.858-1.152-0.832 1.107-0.928-0.666 0.858-1.094-1.363-0.454 0.371-1.056 1.338 0.467v-1.37h1.158v1.37l1.338-0.422 0.358 1.056-1.35 0.422z"></path>
</svg>
