<!-- Generated by IcoMoon.io -->
<svg version="1.1" xmlns="http://www.w3.org/2000/svg" width="32" height="32" viewBox="0 0 32 32">
<title>payment</title>
<path d="M31.725 22.643l-2.317-9.005c0.282-0.698 0.147-1.517-0.397-2.080l-0.192-0.205-0.461-1.786c-0.134-0.506-0.454-0.934-0.902-1.203-0.454-0.269-0.979-0.339-1.491-0.211l-0.166 0.045-6.054-6.317c-0.365-0.378-0.851-0.589-1.37-0.602-0.525 0-1.018 0.179-1.395 0.544l-12.339 11.821-0.506 0.128c-0.512 0.128-0.934 0.454-1.203 0.902-0.154 0.262-0.237 0.557-0.262 0.851l-1.843 1.766c-0.378 0.358-0.589 0.845-0.602 1.37s0.179 1.018 0.544 1.395l4.038 4.218 1.28 4.966c0.23 0.883 1.030 1.478 1.907 1.478 0.16 0 0.326-0.019 0.493-0.064l2.106-0.544c0.275 0.134 0.57 0.218 0.864 0.218 0.493 0 0.973-0.186 1.344-0.538l0.358-0.339 17.152-4.416c0.512-0.128 0.934-0.454 1.203-0.902 0.269-0.454 0.346-0.979 0.211-1.491zM7.674 28.704l-1.926-7.482 22.4-5.766 1.926 7.482c0.019 0.077-0.102 0.192-0.243 0.23l-21.811 5.613c-0.154 0.038-0.326-0.006-0.346-0.077zM4.627 16.851l-0.282-1.101c-0.026-0.109 0.109-0.333 0.224-0.358l21.811-5.613c0.115-0.032 0.326 0.096 0.358 0.211l0.282 1.094-22.394 5.766zM19.59 9.798l2.835-2.714 1.523 1.594-4.358 1.12zM18.131 3.027c0.083-0.077 0.326-0.077 0.41 0.006l0.774 0.813-8.589 8.23-2.79 0.723 10.195-9.773zM2.746 19.718l-0.774-0.813c-0.026-0.026-0.051-0.102-0.051-0.198 0-0.109 0.038-0.192 0.070-0.224l1.069-1.011 0.403 1.568-0.717 0.678z"></path>
</svg>
