<svg width="230" height="50" viewBox="0 0 230 50" fill="none" xmlns="http://www.w3.org/2000/svg">
<path d="M121.037 28.6111C121.692 26.4814 122.253 24.4444 122.908 22.4999C123.843 19.6296 124.872 16.7592 125.901 13.8888C126.088 13.3333 126.275 13.1481 126.837 13.1481C128.707 13.1481 130.484 13.1481 132.449 13.1481C132.168 13.9814 131.888 14.7222 131.607 15.4629C128.52 23.5185 125.527 31.6666 122.44 39.7222C121.973 41.0185 121.318 42.1296 120.757 43.3333C118.979 46.7592 115.986 48.3333 112.151 48.1481C111.309 48.1481 110.467 47.9629 109.626 47.8703C109.439 47.8703 109.158 47.5925 109.158 47.4074C109.251 45.8333 109.345 44.3518 109.439 42.8703C110.748 42.9629 111.964 43.0555 113.18 43.1481C114.303 43.1481 115.238 42.6851 115.706 41.7592C116.547 40.0925 117.296 38.4259 117.95 36.6666C118.044 36.3888 117.857 36.0185 117.763 35.6481C115.051 28.4259 112.432 21.1111 109.719 13.8888C109.626 13.6111 109.532 13.3333 109.439 13.0555C111.496 13.0555 113.554 13.0555 115.519 13.0555C115.706 13.0555 116.08 13.4259 116.173 13.6111C117.763 18.4259 119.26 23.1481 120.85 27.9629C120.757 28.3333 120.85 28.4259 121.037 28.6111Z" fill="#B71F6C"/>
<path d="M183.427 36.6667V13.3334H189.039C188.946 14.6297 188.852 15.926 188.759 17.4074C188.946 17.1297 189.039 17.0371 189.226 16.8519C191.471 13.426 195.774 11.9445 199.702 13.2408C201.947 13.9815 203.163 15.7408 203.537 17.963C203.725 18.7963 203.725 19.6297 203.725 20.463C203.725 25.463 203.725 30.5556 203.725 35.5556V36.5741H197.925C197.925 36.2037 197.832 35.8334 197.832 35.5556C197.832 31.2037 197.832 26.8519 197.832 22.5C197.832 21.9445 197.832 21.2963 197.738 20.7408C197.551 18.2408 195.774 17.1297 193.435 18.0556C191.378 18.8889 190.349 20.5556 189.787 22.5926C189.507 23.6111 189.413 24.6297 189.413 25.6482C189.413 28.9815 189.413 32.4074 189.413 35.8334C189.413 36.5741 189.226 36.7593 188.478 36.7593C186.794 36.5741 185.111 36.6667 183.427 36.6667Z" fill="#B71F6C"/>
<path d="M144.609 18.5185H135.536V13.2407H151.811C151.811 14.6296 151.811 16.0185 151.811 17.4074C151.811 17.6852 151.624 17.963 151.437 18.1481C148.725 22.2222 146.012 26.2037 143.206 30.2778C143.019 30.5555 142.832 30.8333 142.551 31.2963H151.905V36.5741H135.162C135.162 35.2778 135.162 33.9815 135.162 32.6852C135.162 32.4074 135.442 32.1296 135.536 31.8518C138.342 27.6852 141.242 23.5185 144.048 19.3518C144.235 19.0741 144.422 18.8889 144.609 18.5185Z" fill="#B71F6C"/>
<path d="M143.206 30.2778C145.919 26.2037 148.631 22.2222 151.437 18.1481C151.624 17.8704 151.811 17.6852 151.811 17.4074C151.811 16.0185 151.811 14.7222 151.811 13.2407H135.536V18.5185H144.609C144.422 18.8889 144.328 19.0741 144.141 19.2592C141.335 23.4259 138.436 27.5926 135.629 31.7592C135.442 32.037 135.255 32.3148 135.255 32.5926C135.255 33.8889 135.255 35.1852 135.255 36.4815H151.998V31.2037H142.645C142.832 30.8333 143.019 30.5555 143.206 30.2778Z" fill="#B71F6C"/>
<path d="M126.837 13.2407C126.276 13.2407 126.089 13.4259 125.901 13.9815C124.966 16.8518 123.937 19.7222 122.908 22.5926C122.254 24.6296 121.692 26.5741 121.038 28.7037C120.944 28.5185 120.85 28.4259 120.757 28.2407C119.167 23.4259 117.67 18.7037 116.08 13.8889C115.987 13.6111 115.612 13.3333 115.425 13.3333C113.461 13.3333 111.403 13.3333 109.345 13.3333C109.439 13.7037 109.532 13.9815 109.626 14.1667C112.339 21.3889 114.958 28.7037 117.67 35.9259C117.764 36.2037 117.951 36.6667 117.857 36.9444C117.203 38.6111 116.454 40.3704 115.612 42.037C115.145 42.963 114.116 43.4259 113.087 43.4259C111.871 43.4259 110.748 43.2407 109.345 43.1481C109.252 44.6296 109.158 46.1111 109.065 47.6852C109.065 47.8704 109.345 48.1481 109.532 48.1481C110.374 48.2407 111.216 48.3333 112.058 48.4259C115.893 48.6111 118.886 47.037 120.663 43.6111C121.318 42.4074 121.879 41.2037 122.347 40C125.434 31.9444 128.521 23.7963 131.514 15.7407C131.794 15 132.075 14.2592 132.356 13.4259C130.485 13.2407 128.708 13.3333 126.837 13.2407Z" fill="#B71F6C"/>
<path d="M203.537 17.9629C203.163 15.7407 201.947 13.9814 199.702 13.2407C195.774 11.9444 191.471 13.3333 189.226 16.8518C189.133 17.037 189.039 17.1296 188.759 17.4074C188.852 15.9259 188.946 14.6296 189.039 13.3333H183.427V36.6666C185.111 36.6666 186.794 36.6666 188.384 36.6666C189.133 36.6666 189.32 36.4814 189.32 35.7407C189.32 32.3148 189.32 28.9814 189.32 25.5555C189.32 24.537 189.413 23.5185 189.694 22.4999C190.255 20.4629 191.284 18.7036 193.342 17.9629C195.68 17.037 197.457 18.1481 197.645 20.6481C197.738 21.2036 197.738 21.8518 197.738 22.4073C197.738 26.7592 197.738 31.111 197.738 35.4629C197.738 35.8333 197.738 36.2036 197.832 36.4814H203.631V35.4629C203.631 30.4629 203.631 25.3703 203.631 20.3703C203.724 19.6296 203.631 18.7962 203.537 17.9629Z" fill="#B71F6C"/>
<path d="M81.0969 16.1111C79.4132 13.6111 76.9812 12.7778 74.0816 12.8703C71.0884 12.9629 68.8435 14.1666 67.3469 16.6666C67.2534 16.7592 67.1598 16.9444 66.9727 17.1296V13.3333H61.6411V48.0555H67.6275V37.037C69.5918 36.9444 71.5561 37.037 73.4268 36.7592C77.1683 36.2037 79.9744 34.2592 81.6581 30.7407C83.0612 27.7778 83.1547 24.6296 82.8741 21.4815C82.687 19.537 82.2193 17.6852 81.0969 16.1111ZM75.9523 29.0741C75.017 31.3889 73.0527 32.5 70.4336 32.4074C69.6853 32.3148 68.937 32.2222 68.1887 32.037C68.0017 31.9444 67.6275 31.6666 67.6275 31.4815C67.6275 28.7037 67.6275 25.8333 67.8146 23.0555C67.9081 21.2963 68.75 19.7222 70.0595 18.6111C72.2108 16.7592 75.1105 17.5 76.0459 20.1852C77.1683 23.1481 77.0748 26.2037 75.9523 29.0741Z" fill="#B71F6C"/>
<path d="M106.165 31.7593C106.165 27.5926 106.165 23.4259 106.071 19.2593C105.978 16.3889 104.294 14.2593 101.582 13.4259C100.366 13.0556 98.9626 12.8704 97.653 12.7778C94.5663 12.5926 91.5731 13.0556 88.6734 14.0741C88.4864 14.1667 88.2058 14.4444 88.2058 14.6296C88.2993 16.1111 88.4864 17.5926 88.6734 19.1667C89.0476 18.9815 89.4217 18.8889 89.7024 18.7037C91.7602 17.7778 93.9115 17.3148 96.25 17.4074C99.1496 17.5 100.272 18.7963 100.272 21.5741C100.272 22.3148 100.085 22.5 99.3367 22.5C97.0918 22.5 94.8469 22.7778 92.7891 23.5185C89.7023 24.6296 87.2704 26.3889 86.7092 29.9074C86.2415 32.5926 87.3639 35.0926 89.5153 36.2037C92.6955 37.8704 98.2143 37.2222 100.553 33.2407C100.646 33.0556 100.74 32.963 100.927 32.7778V36.4815H106.352C106.165 34.9074 106.165 33.3333 106.165 31.7593ZM94.5663 32.5926C93.4438 32.4074 92.602 31.9444 92.3214 30.7407C92.0408 29.537 92.3214 28.4259 93.3503 27.7778C94.2857 27.2222 95.5017 26.7593 96.6241 26.5741C97.7466 26.2963 98.869 26.3889 100.085 26.2037C100.74 29.6296 97.653 33.0556 94.5663 32.5926Z" fill="#B71F6C"/>
<path d="M229.073 25.926C229.073 24.3519 229.167 22.8704 229.073 21.4815C228.793 17.4074 226.361 13.3334 220.468 12.7778C215.697 12.4074 211.301 14.4445 209.43 19.2593C208.214 22.3148 208.121 25.3704 208.682 28.5185C209.337 32.5926 211.582 35.463 215.791 36.5741C218.41 37.2222 221.029 37.2223 223.648 36.7593C225.238 36.4815 226.828 36.0185 228.418 35.6482C228.231 33.9815 228.044 32.5 227.857 31.0185C227.39 31.2037 227.015 31.2963 226.641 31.4815C224.209 32.3148 221.684 32.6852 219.065 32.2222C216.072 31.7593 213.92 28.7037 214.669 25.8334H229.073V25.926ZM216.539 17.963C218.036 16.9445 219.626 16.8519 221.216 17.6852C222.806 18.5185 223.274 20.0926 223.18 21.8519H214.481C214.669 20.1852 215.323 18.8889 216.539 17.963Z" fill="#B71F6C"/>
<path d="M25.1616 0C11.2245 0 0 11.1111 0 25C0 38.7963 11.2245 50 24.9745 50C38.818 50 50.1361 38.8889 50.1361 25.1852C50.1361 11.2963 39.0051 0 25.1616 0ZM34.7024 35.5556C34.7024 36.8519 34.1412 37.4074 32.7381 37.3148C29.932 37.1296 27.3129 36.2037 25.068 34.2593C19.0816 39.1667 11.5051 37.6852 7.48299 32.963C3.55442 28.4259 3.55442 21.4815 7.57653 16.9444C11.5986 12.3148 19.1752 10.8333 25.1616 15.7407C26.7517 14.3519 28.6224 13.3333 30.7738 12.963C31.6156 12.7778 32.4575 12.7778 33.2058 12.6852C34.2347 12.6852 34.7024 13.1481 34.7024 14.1667C34.7024 15.9259 34.7024 17.6852 34.7024 19.4444C34.7024 20.3704 34.2347 20.8333 33.2058 21.0185C31.2415 21.2037 29.932 22.3148 29.4643 24.0741C28.9031 26.4815 30.4932 28.7037 33.0187 29.0741C34.3282 29.2593 34.6088 29.537 34.6088 30.9259C34.7024 32.4074 34.7024 33.9815 34.7024 35.5556ZM41.6241 29.0741C39.3792 29.0741 37.5085 27.2222 37.5085 25C37.5085 22.7778 39.3793 20.9259 41.5306 20.9259C43.869 20.9259 45.6463 22.6852 45.6463 25C45.6463 27.2222 43.869 29.0741 41.6241 29.0741Z" fill="#414345"/>
<path d="M16.8368 21.0186C14.6854 21.0186 12.8147 22.8704 12.8147 25C12.8147 27.1297 14.6854 28.9815 16.8368 28.9815C18.9882 28.9815 20.8589 27.1297 20.8589 25C20.8589 22.8704 18.9882 21.0186 16.8368 21.0186Z" fill="#414345"/>
<path d="M156.207 20.0926C156.769 18.6111 157.517 17.3149 158.546 16.2037C159.575 15.1852 160.791 14.3519 162.194 13.7037C163.597 13.1482 165.187 12.8704 166.964 12.8704C168.742 12.8704 170.332 13.1482 171.828 13.7037C173.231 14.2593 174.541 15.0926 175.476 16.2037C176.505 17.2223 177.253 18.5186 177.815 20.0926C178.376 21.5741 178.656 23.2408 178.656 25.0926C178.656 26.9445 178.376 28.6111 177.815 30.0926C177.253 31.5741 176.505 32.8704 175.476 33.8889C174.447 34.9074 173.231 35.7408 171.828 36.2963C170.425 36.8519 168.742 37.1297 166.964 37.1297C165.187 37.1297 163.597 36.8519 162.194 36.2963C160.791 35.7408 159.575 34.9074 158.546 33.8889C157.517 32.8704 156.769 31.5741 156.207 30.0926C155.646 28.6111 155.366 26.9445 155.366 25.0926C155.459 23.3334 155.646 21.5741 156.207 20.0926ZM161.913 27.8704C162.1 28.7963 162.381 29.5371 162.849 30.2778C163.316 31.0186 163.784 31.5741 164.532 31.9445C165.187 32.4074 166.122 32.5926 167.151 32.5926C168.18 32.5926 169.116 32.4074 169.77 31.9445C170.519 31.4815 171.08 30.926 171.454 30.2778C171.828 29.5371 172.202 28.7963 172.389 27.8704C172.577 26.9445 172.67 26.1111 172.67 25.1852C172.67 24.2593 172.577 23.3334 172.389 22.4074C172.202 21.4815 171.922 20.7408 171.454 20C170.986 19.3519 170.425 18.7963 169.77 18.3334C169.022 17.8704 168.18 17.6852 167.151 17.6852C166.122 17.6852 165.187 17.8704 164.532 18.3334C163.878 18.7963 163.316 19.3519 162.849 20C162.475 20.6482 162.1 21.4815 161.913 22.4074C161.726 23.3334 161.633 24.2593 161.633 25.1852C161.633 26.1111 161.726 26.9445 161.913 27.8704Z" fill="#B71F6C"/>
</svg>
