<!-- Generated by IcoMoon.io -->
<svg version="1.1" xmlns="http://www.w3.org/2000/svg" width="26" height="32" viewBox="0 0 26 32">
<title>single-ticket</title>
<path d="M24.349 5.442l-2.452-0.957c-0.638-0.25-1.384 0-1.724 0.586-0.035 0.052-0.888 1.297-3.427 0.284-2.431-0.957-2.168-2.289-2.13-2.414 0.212-0.694-0.125-1.422-0.798-1.686l-2.255-0.888c-0.336-0.125-0.694-0.125-1.013 0.017s-0.586 0.409-0.711 0.746l-9.198 23.794c-0.267 0.694 0.069 1.457 0.763 1.724l2.327 0.905c0.336 0.125 0.711 0.125 1.030-0.035 0.302-0.142 0.534-0.392 0.656-0.694 0.16-0.16 1.013-0.392 3.108 0.427 2.47 0.957 2.646 1.793 2.664 1.901-0.194 0.656 0.16 1.384 0.798 1.634l2.185 0.853c0.16 0.052 0.319 0.090 0.479 0.090 0.177 0 0.375-0.035 0.534-0.108 0.319-0.142 0.586-0.409 0.711-0.746l9.198-23.707c0.267-0.697-0.069-1.46-0.746-1.727v0zM20.991 13.045l-0.638-0.232c-0.302-0.108-0.638 0.052-0.746 0.354s0.052 0.638 0.354 0.746l0.604 0.212-6.125 15.827-1.564-0.604c0.069-0.728-0.25-2.272-3.746-3.642-1.918-0.746-3.375-0.888-4.37-0.427-0.375 0.177-0.621 0.409-0.763 0.604l-1.668-0.656 5.983-15.469 1.28 0.461c0.069 0.017 0.125 0.035 0.194 0.035 0.232 0 0.461-0.142 0.552-0.392 0.108-0.302-0.052-0.638-0.354-0.746l-1.242-0.441 2.539-6.552 1.616 0.638c-0.177 1.12 0.284 3.073 3.198 4.207 3.319 1.297 4.901-0.212 5.362-0.798l1.883 0.728-2.348 6.146zM13.961 10.523l-1.474-0.534c-0.302-0.108-0.638 0.052-0.746 0.354s0.052 0.638 0.354 0.746l1.474 0.534c0.069 0.017 0.125 0.035 0.194 0.035 0.232 0 0.461-0.142 0.552-0.392 0.108-0.298-0.052-0.638-0.354-0.742v0zM17.901 11.925l-1.474-0.534c-0.302-0.108-0.638 0.052-0.746 0.354s0.052 0.638 0.354 0.746l1.474 0.534c0.069 0.017 0.125 0.035 0.194 0.035 0.232 0 0.461-0.142 0.552-0.392 0.111-0.298-0.049-0.635-0.354-0.742v0z"></path>
</svg>
