<!-- Generated by IcoMoon.io -->
<svg version="1.1" xmlns="http://www.w3.org/2000/svg" width="39" height="32" viewBox="0 0 39 32">
<title>social-media</title>
<path d="M32.398 10.6c-1.216-0.32-4.088-0.312-8.272-0.424 0.2-0.912 0.24-1.736 0.24-3.2 0-3.496-2.552-6.576-4.8-6.576-1.592 0-2.904 1.304-2.928 2.904-0.024 1.96-0.632 5.352-3.896 7.072-0.24 0.128-0.928 0.464-1.024 0.512l0.048 0.040c-0.512-0.44-1.224-0.784-1.952-0.784h-2.928c-1.616 0-2.928 1.312-2.928 2.928v15.6c0 1.616 1.312 2.928 2.928 2.928h2.928c1.16 0 2.128-0.704 2.6-1.68 0.008 0 0.032 0.008 0.048 0.008 0.064 0.016 0.144 0.040 0.232 0.064 0.016 0.008 0.024 0.008 0.048 0.008 0.56 0.136 1.64 0.4 3.952 0.928 0.496 0.112 3.112 0.672 5.824 0.672h5.328c1.624 0 2.792-0.624 3.496-1.88 0.008-0.016 0.232-0.456 0.416-1.048 0.136-0.448 0.192-1.080 0.024-1.72 1.048-0.72 1.384-1.808 1.6-2.512 0.368-1.16 0.256-2.032 0-2.656 0.592-0.552 1.088-1.4 1.304-2.696 0.128-0.8-0.008-1.624-0.376-2.312 0.552-0.624 0.8-1.4 0.832-2.12l0.008-0.2c0.008-0.128 0.016-0.208 0.016-0.488 0-1.248-0.856-2.824-2.768-3.368zM33.19 14.56c-0.016 0.48-0.224 1.432-1.928 1.432-1.464 0-3.024 0-3.024 0-0.272 0-0.488 0.216-0.488 0.488s0.216 0.488 0.488 0.488c0 0 1.504 0 2.968 0s1.656 1.216 1.56 1.8c-0.12 0.728-0.464 2.104-2.112 2.104s-2.304 0-2.304 0c-0.272 0-0.488 0.216-0.488 0.488s0.216 0.488 0.488 0.488c0 0 1.144 0 1.912 0 1.648 0 1.504 1.256 1.264 2-0.312 0.984-0.32 1.896-2.392 1.896-0.704 0-2.664 0-2.664 0-0.272 0-0.488 0.216-0.488 0.488s0.216 0.488 0.488 0.488c0 0 1.752 0 2.6 0 1.064 0 0.936 1.008 0.824 1.368-0.12 0.392-0.264 0.688-0.272 0.704-0.296 0.528-0.768 0.848-1.776 0.848h-5.328c-2.68 0-5.336-0.608-5.4-0.624-4.048-0.936-4.264-1.008-4.52-1.080 0 0-0.824-0.136-0.824-0.856l-0.008-13.464c0-0.456 0.288-0.872 0.776-1.016 0.064-0.024 0.144-0.048 0.2-0.072 4.456-1.848 5.808-5.888 5.848-9.208 0.008-0.464 0.368-0.976 0.976-0.976 1.032 0 2.856 2.072 2.856 4.632 0 2.312-0.096 2.712-0.904 5.12 9.752 0 9.68 0.144 10.544 0.368 1.064 0.304 1.16 1.192 1.16 1.496-0.008 0.32-0.016 0.272-0.032 0.6z"></path>
</svg>
