<svg
        class="coloured-svg"
        width="90"
        height="42"
        viewBox="0 0 90 42"
        fill="none"
        xmlns="http://www.w3.org/2000/svg"
>
    <path
            fill-rule="evenodd"
            clip-rule="evenodd"
            d="M36.129 23.7097H49.6774C49.9769 23.7097 50.264 23.8286 50.4758 24.0404C50.6875 24.2521 50.8065 24.5393 50.8065 24.8387V35C50.8065 35.2995 50.6875 35.5866 50.4758 35.7984C50.264 36.0101 49.9769 36.129 49.6774 36.129H36.129C35.8296 36.129 35.5424 36.0101 35.3307 35.7984C35.119 35.5866 35 35.2995 35 35V24.8387C35 24.5393 35.119 24.2521 35.3307 24.0404C35.5424 23.8286 35.8296 23.7097 36.129 23.7097ZM42.2419 33.871H48.5484V25.9678H37.2581V28.8871L38.7178 27.4274C38.9295 27.2157 39.2167 27.0968 39.5161 27.0968C39.8156 27.0968 40.1028 27.2157 40.3145 27.4274C40.5262 27.6392 40.6452 27.9264 40.6452 28.2258C40.6452 28.5253 40.5262 28.8124 40.3145 29.0242L37.2581 32.0806V33.871H39.0484L45.492 27.4274C45.5968 27.3226 45.7213 27.2394 45.8582 27.1827C45.9952 27.126 46.1421 27.0968 46.2903 27.0968C46.4386 27.0968 46.5854 27.126 46.7224 27.1827C46.8594 27.2394 46.9838 27.3226 47.0887 27.4274C47.1935 27.5323 47.2767 27.6568 47.3334 27.7937C47.3902 27.9307 47.4194 28.0775 47.4194 28.2258C47.4194 28.3741 47.3902 28.5209 47.3334 28.6579C47.2767 28.7949 47.1935 28.9193 47.0887 29.0242L42.2419 33.871Z"
            fill="#A81B1A"
            class="fill-brand-primary"
    />
    <path
            d="M28.2258 30.4839C27.9264 30.4839 27.6392 30.6028 27.4275 30.8146C27.2157 31.0263 27.0968 31.3135 27.0968 31.6129V32.7419C27.0968 33.0414 27.2157 33.3286 27.4275 33.5403C27.6392 33.752 27.9264 33.871 28.2258 33.871C28.5252 33.871 28.8124 33.752 29.0242 33.5403C29.2359 33.3286 29.3548 33.0414 29.3548 32.7419V31.6129C29.3548 31.3135 29.2359 31.0263 29.0242 30.8146C28.8124 30.6028 28.5252 30.4839 28.2258 30.4839Z"
            fill="#A81B1A"
            class="fill-brand-primary"
    />
    <path
            fill-rule="evenodd"
            clip-rule="evenodd"
            d="M64.3548 39.5161H56.4516V19.4758H59.8387C60.6181 19.4758 61.25 18.844 61.25 18.0645V6.7742C61.25 5.99476 60.6181 5.36291 59.8387 5.36291H56.4516V1.12903C56.4516 0.829595 56.3327 0.542421 56.1209 0.330686C55.9092 0.118952 55.622 0 55.3226 0H14.6774C14.378 0 14.0908 0.118952 13.8791 0.330686C13.6673 0.542421 13.5484 0.829595 13.5484 1.12903V5.36291H9.87903C9.0996 5.36291 8.46774 5.99476 8.46774 6.7742V18.0645C8.46774 18.844 9.0996 19.4758 9.87903 19.4758H13.5484V39.5161H1.12903C0.829594 39.5161 0.54242 39.6351 0.330686 39.8468C0.118951 40.0586 0 40.3457 0 40.6452C0 40.9446 0.118951 41.2318 0.330686 41.4435C0.54242 41.6553 0.829594 41.7742 1.12903 41.7742H64.3548C64.6543 41.7742 64.9414 41.6553 65.1532 41.4435C65.3649 41.2318 65.4839 40.9446 65.4839 40.6452C65.4839 40.3457 65.3649 40.0586 65.1532 39.8468C64.9414 39.6351 64.6543 39.5161 64.3548 39.5161ZM15.8065 19.4758V39.5161H19.1935V24.8387C19.1935 24.5393 19.3125 24.2521 19.5242 24.0404C19.736 23.8286 20.0231 23.7097 20.3226 23.7097H31.6129C31.9123 23.7097 32.1995 23.8286 32.4113 24.0404C32.623 24.2521 32.7419 24.5393 32.7419 24.8387V39.5161H54.1935V19.4758H15.8065ZM15.8065 5.36291H54.1935V2.25807H15.8065V5.36291ZM21.4516 39.5161V25.9678H30.4839V39.5161H21.4516ZM10.5847 9.73791V7.47984H41.3531C40.5988 8.07462 39.9924 8.84875 39.5984 9.73791H10.5847ZM39.1747 11.1492H10.5847V13.9718H39.3821C39.1943 13.3941 39.0927 12.7775 39.0927 12.1371C39.0927 11.8005 39.1208 11.4705 39.1747 11.1492ZM40.0597 15.3831H10.5847V17.3589H42.2128C41.3411 16.8892 40.6004 16.2076 40.0597 15.3831ZM47.8275 17.3589H59.1331V15.3831H49.9806C49.4399 16.2076 48.6992 16.8892 47.8275 17.3589ZM50.6582 13.9718H59.1331V11.1492H50.8656C50.9195 11.4705 50.9476 11.8005 50.9476 12.1371C50.9476 12.7775 50.846 13.3941 50.6582 13.9718ZM50.4419 9.73791H59.1331V7.47984H48.6872C49.4415 8.07462 50.0479 8.84875 50.4419 9.73791ZM49.5363 12.1371C49.5363 14.6313 47.5143 16.6532 45.0202 16.6532C42.526 16.6532 40.504 14.6313 40.504 12.1371C40.504 9.64291 42.526 7.62097 45.0202 7.62097C47.5143 7.62097 49.5363 9.64291 49.5363 12.1371Z"
            fill="#A81B1A"
            class="fill-brand-primary"
    />
    <path
            d="M68.871 39.5161H67.7419C67.4425 39.5161 67.1553 39.6351 66.9436 39.8468C66.7319 40.0586 66.6129 40.3457 66.6129 40.6452C66.6129 40.9446 66.7319 41.2318 66.9436 41.4435C67.1553 41.6553 67.4425 41.7742 67.7419 41.7742H68.871C69.1704 41.7742 69.4576 41.6553 69.6693 41.4435C69.8811 41.2318 70 40.9446 70 40.6452C70 40.3457 69.8811 40.0586 69.6693 39.8468C69.4576 39.6351 69.1704 39.5161 68.871 39.5161Z"
            fill="#A81B1A"
            class="fill-brand-primary"
    />
    <path
            fill-rule="evenodd"
            clip-rule="evenodd"
            d="M78.3125 39C73.468 34.6142 71 31.0508 71 28.3096C71 24.2726 74.2739 21 78.3125 21C82.3511 21 85.625 24.2726 85.625 28.3096C85.625 31.0508 83.157 34.7056 78.3125 39ZM78.3125 31.125C79.8658 31.125 81.125 29.8658 81.125 28.3125C81.125 26.7592 79.8658 25.5 78.3125 25.5C76.7592 25.5 75.5 26.7592 75.5 28.3125C75.5 29.8658 76.7592 31.125 78.3125 31.125Z"
            fill="#A81B1A"
            class="fill-brand-primary"
    />
    <path
            fill-rule="evenodd"
            clip-rule="evenodd"
            d="M78.3125 39C73.468 34.6142 71 31.0508 71 28.3096C71 24.2726 74.2739 21 78.3125 21C82.3511 21 85.625 24.2726 85.625 28.3096C85.625 31.0508 83.157 34.7056 78.3125 39ZM78.3125 31.125C79.8658 31.125 81.125 29.8658 81.125 28.3125C81.125 26.7592 79.8658 25.5 78.3125 25.5C76.7592 25.5 75.5 26.7592 75.5 28.3125C75.5 29.8658 76.7592 31.125 78.3125 31.125Z"
            stroke="#1E2426"
            stroke-width="1.5"
            stroke-linecap="square"
    />
</svg>
