<!-- Generated by IcoMoon.io -->
<svg version="1.1" xmlns="http://www.w3.org/2000/svg" width="32" height="32" viewBox="0 0 32 32">
<title>terms-and-conditions</title>
<path d="M7.584 26.667c0 2.062-1.671 3.733-3.733 3.733s-3.733-1.671-3.733-3.733c0-2.062 1.671-3.733 3.733-3.733s3.733 1.671 3.733 3.733zM11.488 29.472c-0.469 0-0.928-0.267-1.131-0.725-0.288-0.629-0.011-1.365 0.619-1.643l4.16-1.899c0.384-0.171 0.832-0.139 1.184 0.085s0.576 0.619 0.576 1.045v0.064l5.024-1.984c0.459-0.181 0.981-0.075 1.333 0.277s0.459 0.875 0.277 1.333l-0.235 0.597 6.581-1.173c0.661-0.117 1.291 0.299 1.429 0.949l0.352 1.568c0.149 0.672-0.277 1.333-0.939 1.483-0.672 0.149-1.333-0.277-1.483-0.939l-0.085-0.405-7.595 1.355c-0.448 0.085-0.896-0.085-1.184-0.437s-0.363-0.821-0.203-1.237v-0.011l-4.064 1.611c-0.384 0.149-0.821 0.107-1.152-0.128-0.331-0.224-0.533-0.597-0.544-0.992l-2.4 1.099c-0.171 0.075-0.352 0.107-0.523 0.107zM23.605 14.848h-21.941c-0.853 0-1.536 0.693-1.536 1.536v0c0 0.853 0.693 1.536 1.536 1.536h21.941c0.853 0 1.536-0.693 1.536-1.536v0c0-0.853-0.693-1.536-1.536-1.536zM30.155 8.224h-28.491c-0.853 0-1.536 0.693-1.536 1.536v0c0 0.853 0.693 1.536 1.536 1.536h28.501c0.853 0 1.536-0.693 1.536-1.536v0c0-0.853-0.693-1.536-1.547-1.536zM26.88 1.6h-25.216c-0.853 0-1.536 0.693-1.536 1.536v0c0 0.853 0.693 1.536 1.536 1.536h25.216c0.853 0 1.536-0.693 1.536-1.536v0c0-0.853-0.683-1.536-1.536-1.536z"></path>
</svg>
