<?xml version="1.0" encoding="UTF-8" standalone="no"?>
<!DOCTYPE svg PUBLIC "-//W3C//DTD SVG 1.1//EN" "http://www.w3.org/Graphics/SVG/1.1/DTD/svg11.dtd">
<svg width="100%" height="100%" viewBox="0 0 18 21" version="1.1" xmlns="http://www.w3.org/2000/svg" xmlns:xlink="http://www.w3.org/1999/xlink" xml:space="preserve" xmlns:serif="http://www.serif.com/" style="fill-rule:evenodd;clip-rule:evenodd;stroke-linejoin:round;stroke-miterlimit:2;">
    <g transform="matrix(1,0,0,1,-56.625,-57.0833)">
        <g transform="matrix(0.278431,0,0,0.294117,53.6667,55)">
            <path d="M62.161,52.535C64.3,52.535 66.034,54.252 66.034,56.371C66.034,58.49 64.3,60.208 62.161,60.208C60.022,60.208 58.289,58.491 58.289,56.371C58.289,54.253 60.022,52.535 62.161,52.535ZM55.426,27.654C55.698,27.208 56.322,27.02 56.865,27.255L59.471,28.382C60.013,28.594 60.231,29.157 59.959,29.604C59.769,29.956 59.308,30.144 58.873,30.097C58.765,30.074 58.629,30.05 58.521,30.003L58.521,30.003L55.915,28.875C55.372,28.664 55.155,28.1 55.426,27.654ZM48.873,24.112C49.144,23.666 49.768,23.478 50.311,23.713L52.917,24.84C53.46,25.052 53.677,25.616 53.405,26.062C53.215,26.414 52.754,26.602 52.32,26.555C52.211,26.532 52.075,26.508 51.967,26.461L49.361,25.334C48.818,25.122 48.601,24.559 48.873,24.112ZM74.35,45.352C74.35,44.591 74.35,43.83 74.324,43.068C74.324,38.906 71.252,35.86 67.053,35.86L65.209,35.86L72.865,21.773C73.479,20.656 73.044,19.286 71.892,18.677L67.846,16.545C66.771,15.986 65.414,16.265 64.697,17.179C64.62,17.255 62.879,19.184 58.654,16.951C54.583,14.819 55.351,12.611 55.454,12.382C55.991,11.265 55.53,9.92 54.404,9.336L50.665,7.357C50.102,7.077 49.487,7.001 48.873,7.179C48.284,7.357 47.772,7.737 47.49,8.296L32.511,35.834L35.917,35.834L43.086,22.661L45.212,23.702C45.314,23.753 45.442,23.778 45.544,23.804C45.954,23.854 46.389,23.651 46.569,23.271C46.825,22.788 46.62,22.179 46.108,21.951L44.008,20.936L49.795,10.301L52.483,11.722C51.92,13.575 52.33,17.002 57.195,19.565C62.725,22.484 65.798,20.225 66.745,19.337L69.869,20.986L64.441,30.961L63.365,30.428C62.853,30.174 62.264,30.377 62.008,30.86C61.752,31.342 61.957,31.951 62.469,32.179L63.493,32.687L61.778,35.86L30.642,35.86L34.944,27.789L32.588,26.646C32.102,26.393 31.897,25.809 32.127,25.327C32.358,24.844 32.972,24.641 33.459,24.87L35.865,26.037L39.066,20.25C39.297,19.844 40.09,18.245 40.193,17.991C40.321,17.738 39.476,17.128 39.066,16.925L35.328,14.945C34.918,14.742 34.406,14.869 34.175,15.275L29.848,23.245C30.027,23.524 30.079,23.88 29.925,24.21C29.823,24.387 29.695,24.54 29.541,24.616C29.387,24.692 29.208,24.743 29.029,24.743L26.801,28.829L21.091,28.829C19.529,28.829 18.172,28.829 17.583,28.855C13.768,28.88 10.644,31.926 10.644,35.733C10.619,47.484 10.619,59.236 10.644,70.988C10.644,74.846 13.794,77.917 17.66,77.917L67.334,77.917C70.509,77.917 73.325,75.81 74.042,72.764C74.349,71.419 74.298,69.972 74.349,68.576L74.375,68.576L74.375,45.352L74.35,45.352ZM71.559,47.484L71.559,66.267L61.983,66.267C61.496,66.267 61.01,66.216 60.523,66.14C55.556,65.327 52.253,60.987 52.663,55.835C53.021,51.266 57.246,47.51 62.034,47.484L71.559,47.484ZM18.608,33.575C18.966,33.474 19.325,33.448 19.683,33.448L24.292,33.448L22.986,35.86L19.76,35.86C19.376,35.86 18.966,35.834 18.608,35.733C18.07,35.606 17.66,35.276 17.66,34.667C17.66,34.032 18.07,33.728 18.608,33.575L18.608,33.575ZM70.407,71.952C70.1,73.272 68.819,74.236 67.334,74.236L17.661,74.236C15.817,74.236 14.357,72.815 14.357,70.988C14.332,59.414 14.332,47.84 14.357,36.621C14.946,37.916 16.124,38.88 17.661,39.286C18.301,39.464 19.018,39.54 19.76,39.54L67.053,39.54C69.178,39.54 70.586,40.962 70.586,43.068L70.586,43.804L61.983,43.804C55.3,43.83 49.436,49.109 48.924,55.556C48.361,62.561 53.072,68.678 59.909,69.795C60.626,69.922 61.317,69.973 61.957,69.973L70.56,69.973C70.56,70.709 70.509,71.394 70.407,71.952L70.407,71.952Z"/>
        </g>
    </g>
</svg>
