<!-- Generated by IcoMoon.io -->
<svg version="1.1" xmlns="http://www.w3.org/2000/svg" width="32" height="32" viewBox="0 0 32 32">
<title>tick</title>
<path d="M31.622 5.406l-3.269-2.541c-0.134-0.103-0.294-0.159-0.456-0.159-0.231 0-0.45 0.103-0.591 0.281l-14.313 18.428-8.328-8.959c-0.141-0.153-0.334-0.238-0.547-0.238-0.188 0-0.366 0.072-0.506 0.2l-3.031 2.819c-0.303 0.281-0.316 0.75-0.044 1.053l1.041 1.131 11.775 12.681 18.397-23.65c0.122-0.153 0.175-0.347 0.147-0.547-0.019-0.203-0.119-0.378-0.275-0.5v0z"></path>
</svg>
