<!-- Generated by IcoMoon.io -->
<svg version="1.1" xmlns="http://www.w3.org/2000/svg" width="32" height="32" viewBox="0 0 32 32">
<title>Ticket</title>
<path d="M29.568 4.736l-2.208-0.864c-0.576-0.224-1.248 0-1.552 0.528-0.032 0.048-0.8 1.168-3.088 0.256-2.192-0.864-1.952-2.064-1.92-2.176 0.192-0.624-0.112-1.28-0.72-1.52l-2.032-0.8c-0.304-0.112-0.624-0.112-0.912 0.016s-0.528 0.368-0.64 0.672l-8.288 21.44c-0.24 0.624 0.064 1.312 0.688 1.552l2.096 0.816c0.304 0.112 0.64 0.112 0.928-0.032 0.272-0.128 0.48-0.352 0.592-0.624 0.144-0.144 0.912-0.352 2.8 0.384 2.224 0.864 2.384 1.616 2.4 1.712-0.176 0.592 0.144 1.248 0.72 1.472l1.968 0.768c0.144 0.048 0.288 0.080 0.432 0.080 0.16 0 0.336-0.032 0.48-0.096 0.288-0.128 0.528-0.368 0.64-0.672l8.288-21.36c0.24-0.624-0.064-1.312-0.672-1.552zM26.544 11.584l-0.576-0.208c-0.272-0.096-0.576 0.048-0.672 0.32s0.048 0.576 0.32 0.672l0.544 0.192-5.52 14.256-1.408-0.544c0.064-0.656-0.224-2.048-3.376-3.28-1.728-0.672-3.040-0.8-3.936-0.384-0.336 0.16-0.56 0.368-0.688 0.544l-1.504-0.592 5.392-13.936 1.152 0.416c0.064 0.016 0.112 0.032 0.176 0.032 0.208 0 0.416-0.128 0.496-0.352 0.096-0.272-0.048-0.576-0.32-0.672l-1.12-0.4 2.288-5.904 1.456 0.576c-0.16 1.008 0.256 2.768 2.88 3.792 2.992 1.168 4.416-0.192 4.832-0.72l1.696 0.656-2.112 5.536zM20.208 9.312l-1.328-0.48c-0.272-0.096-0.576 0.048-0.672 0.32s0.048 0.576 0.32 0.672l1.328 0.48c0.064 0.016 0.112 0.032 0.176 0.032 0.208 0 0.416-0.128 0.496-0.352 0.096-0.272-0.048-0.576-0.32-0.672zM23.76 10.576l-1.328-0.48c-0.272-0.096-0.576 0.048-0.672 0.32s0.048 0.576 0.32 0.672l1.328 0.48c0.064 0.016 0.112 0.032 0.176 0.032 0.208 0 0.416-0.128 0.496-0.352 0.096-0.272-0.048-0.576-0.32-0.672zM15.872 26.128c0 0-0.416-0.336-1.28-0.672-1.408-0.544-1.984-0.384-2.128-0.32-0.032 0.016-0.048 0.032-0.064 0.032l-0.272 0.832c-0.080 0.224-0.32 0.336-0.544 0.256l-0.512-0.208c-0.224-0.080-0.592-0.224-0.8-0.32l-2.112-0.832c-0.224-0.080-0.592-0.224-0.8-0.32l-0.448-0.176c-0.224-0.080-0.336-0.336-0.24-0.56l0.176-0.448c0.080-0.224 0.224-0.592 0.32-0.8l4.192-10.816-1.056-0.384c-0.272-0.096-0.416-0.4-0.32-0.672s0.4-0.416 0.672-0.32l1.072 0.384 1.232-3.184c0.080-0.224 0.496-1.136 0.544-1.28s-0.528-0.368-0.752-0.464l-2.032-0.8c-0.224-0.080-0.48 0.016-0.56 0.24l-1.68 4.368c0.224 0.112 0.336 0.384 0.256 0.624-0.080 0.208-0.272 0.352-0.496 0.352-0.048 0-0.080-0.016-0.128-0.016l-3.136 8.128c-0.080 0.224-0.224 0.592-0.32 0.8l-2.784 7.216c-0.080 0.224 0.032 0.48 0.24 0.56l2.096 0.816c0.224 0.080 0.464-0.032 0.544-0.256 0 0 0.432-1.328 3.776-0.016s2.864 2.624 2.864 2.624c-0.080 0.224 0.032 0.48 0.256 0.56l1.968 0.768c0.224 0.080 0.48-0.016 0.56-0.24l1.84-4.768c0.112-0.224 0.032-0.528-0.144-0.688z"></path>
</svg>
