<svg
        width="85"
        height="85"
        viewBox="0 0 85 85"
        xmlns="http://www.w3.org/2000/svg">
    <path
            fill-rule="evenodd"
            clip-rule="evenodd"
            d="M62.1612 52.5347C64.3001 52.5347 66.0339 54.2524 66.0339 56.3715C66.0339 58.4905 64.3001 60.2083 62.1612 60.2083C60.0223 60.2083 58.2886 58.4906 58.2886 56.3715C58.2886 54.2525 60.0223 52.5347 62.1612 52.5347ZM55.4264 27.6539C55.6979 27.2075 56.3221 27.0196 56.865 27.2545L59.4705 28.3821C60.0134 28.5936 60.2305 29.1573 59.9591 29.6037C59.7691 29.956 59.3077 30.144 58.8734 30.097C58.7649 30.0736 58.6292 30.05 58.5206 30.003V30.0031L55.9151 28.8754C55.3722 28.664 55.155 28.1002 55.4264 27.6539ZM48.8727 24.1122C49.1442 23.6658 49.7684 23.4779 50.3112 23.7128L52.9167 24.8405C53.4597 25.0519 53.6767 25.6157 53.4054 26.062C53.2154 26.4144 52.7539 26.6023 52.3197 26.5553C52.2112 26.5319 52.0754 26.5084 51.9668 26.4614V26.4614L49.3613 25.3338C48.8184 25.1223 48.6012 24.5586 48.8727 24.1122ZM74.35 45.3524C74.35 44.591 74.35 43.8296 74.3243 43.068C74.3243 38.9055 71.2517 35.8598 67.0525 35.8598C66.4381 35.8598 65.8235 35.8598 65.209 35.8598L72.8649 21.7732C73.4794 20.6564 73.0442 19.2858 71.8919 18.6767L67.8464 16.5446C66.771 15.9862 65.4139 16.2654 64.6969 17.1792C64.62 17.2554 62.8789 19.1843 58.6541 16.9507C54.5829 14.8186 55.3511 12.6105 55.4535 12.3821C55.9912 11.2654 55.5304 9.92005 54.4036 9.3363L50.6653 7.35655C50.102 7.07735 49.4875 7.00123 48.873 7.17889C48.284 7.35655 47.772 7.73729 47.4903 8.29562L32.5113 35.8343C33.6379 35.8343 34.7902 35.8343 35.9169 35.8343L43.0863 22.6614L45.2115 23.7021C45.3139 23.7528 45.442 23.7783 45.5443 23.8036C45.954 23.8544 46.3893 23.6513 46.5686 23.2706C46.8246 22.7883 46.6198 22.1792 46.1076 21.9508L44.008 20.9356L49.7947 10.3008L52.4832 11.7221C51.9199 13.575 52.3296 17.0015 57.1945 19.565C62.7252 22.4838 65.7978 20.2249 66.7452 19.3365L69.8689 20.9863L64.4407 30.9611L63.3653 30.4282C62.8532 30.1744 62.2643 30.3774 62.0082 30.8597C61.7521 31.342 61.957 31.9511 62.4692 32.1795L63.4934 32.6871L61.7778 35.8598C61.6497 35.8598 61.5472 35.8598 61.4193 35.8598C58.91 35.8598 56.4008 35.8598 53.8915 35.8598C49.7947 35.8598 45.6723 35.8598 41.5755 35.8598C37.9396 35.8598 34.2781 35.8598 30.6421 35.8598L34.9437 27.7886L32.5881 26.6464C32.1015 26.3926 31.8967 25.8088 32.1271 25.3266C32.3575 24.8444 32.9721 24.6413 33.4585 24.8696L35.8654 26.0371L39.066 20.2502C39.2966 19.8441 40.0903 18.2451 40.1926 17.9912C40.3207 17.7375 39.4756 17.1283 39.066 16.9252L35.3277 14.9454C34.9181 14.7424 34.406 14.8693 34.1754 15.2754L29.8482 23.2451C30.0274 23.5243 30.0787 23.8797 29.925 24.2096C29.8226 24.3873 29.6945 24.5396 29.5408 24.6157C29.3872 24.6918 29.208 24.7427 29.0287 24.7427L26.801 28.8291C25.3671 28.8291 23.0627 28.8291 21.0911 28.8291C19.5292 28.8291 18.1722 28.8291 17.5832 28.8545C13.768 28.8799 10.6442 31.9256 10.6442 35.7328C10.6186 47.4844 10.6186 59.2359 10.6442 70.9875C10.6442 74.8455 13.7937 77.9166 17.66 77.9166C25.1623 77.9166 32.6645 77.9166 40.1667 77.9166C49.2308 77.9166 58.2695 77.9166 67.3336 77.9166C70.5086 77.9166 73.3252 75.81 74.042 72.7642C74.3493 71.4189 74.2981 69.9722 74.3494 68.5762H74.375V45.3524H74.35ZM71.559 47.4844V66.2666C70.97 66.2666 70.3812 66.2666 69.7922 66.2666C67.1806 66.2666 64.5944 66.2666 61.9827 66.2666C61.4962 66.2666 61.0097 66.2158 60.5233 66.1396C55.5559 65.3274 52.2529 60.9872 52.6625 55.8349C53.021 51.2663 57.2458 47.5098 62.0339 47.4844C62.8021 47.4844 63.5447 47.4844 64.3128 47.4844C65.7979 47.4844 67.283 47.4844 68.768 47.4844C69.4593 47.4844 70.1507 47.4844 70.8676 47.4844C71.0724 47.4844 71.3029 47.4844 71.559 47.4844ZM18.6079 33.5754C18.9664 33.4739 19.3249 33.4484 19.6834 33.4484C20.0675 33.4484 21.4245 33.4484 22.9608 33.4484C23.3961 33.4484 23.8313 33.4484 24.2922 33.4484L22.9863 35.8597C21.9109 35.8597 20.8354 35.8597 19.76 35.8597C19.3758 35.8597 18.9662 35.8343 18.6077 35.7327C18.07 35.6058 17.6603 35.2758 17.6603 34.6667C17.6603 34.0321 18.07 33.7276 18.6077 33.5753L18.6079 33.5754ZM70.4068 71.952C70.0995 73.2718 68.8192 74.2364 67.3341 74.2364C58.27 74.2364 49.2314 74.2364 40.1673 74.2364C32.665 74.2364 25.1628 74.2364 17.6605 74.2364C15.817 74.2364 14.3574 72.815 14.3574 70.9876C14.3318 59.4138 14.3318 47.8398 14.3574 36.6213C14.9464 37.9159 16.1242 38.8803 17.6605 39.2864C18.3007 39.4641 19.0176 39.5402 19.7601 39.5402C27.0318 39.5402 34.3293 39.5402 41.6011 39.5402H61.445C63.3142 39.5402 65.1833 39.5402 67.0525 39.5402C69.1777 39.5402 70.5859 40.9615 70.5859 43.0682V43.8044H64.2614C63.4933 43.8044 62.7507 43.8044 61.9826 43.8044C55.2996 43.8298 49.4362 49.1091 48.9241 55.5559C48.3607 62.5612 53.0721 68.678 59.9086 69.7948C60.6255 69.9218 61.3169 69.9725 61.957 69.9725C64.5687 69.9725 67.1804 69.9725 69.7921 69.9725H70.5603C70.5603 70.7086 70.5091 71.3938 70.4066 71.9522L70.4068 71.952Z" />
</svg>
