<!-- Generated by IcoMoon.io -->
<svg version="1.1" xmlns="http://www.w3.org/2000/svg" width="32" height="32" viewBox="0 0 32 32">
<title>trip-tools</title>
<path d="M22.101 8.832c-1.493 0-2.699-1.205-2.699-2.709 0-1.493 1.216-2.699 2.699-2.699 1.493 0 2.709 1.205 2.709 2.699s-1.216 2.709-2.709 2.709zM22.101 16c0 0 5.621-7.008 5.621-10.112s-2.517-5.621-5.621-5.621c-3.104 0-5.621 2.517-5.621 5.621s5.621 10.112 5.621 10.112zM9.024 29.515l-5.845-2.411v-16.715l5.845 2.4v16.725zM31.029 29.173v-21.163l-2.112-1.131c-0.16 0.597-0.416 1.248-0.736 1.909l0.8 0.587v16.725l-5.835-2.389v-7.584c-0.213 0.267-0.363 0.469-0.437 0.565l-0.608 0.747-0.597-0.747c-0.075-0.085-0.213-0.267-0.405-0.512v8.373l-10.016 4.128v-16.736l5.291-1.813c-0.331-0.64-0.619-1.269-0.843-1.867l-6.507 2.304-7.893-3.243v21.152l7.893 3.253 14.123-5.813 7.883 3.253z"></path>
</svg>
