<!-- Generated by IcoMoon.io -->
<svg version="1.1" xmlns="http://www.w3.org/2000/svg" width="32" height="32" viewBox="0 0 32 32">
<title>twitter</title>
<path d="M31.584 6.406c-1.139 0.506-2.362 0.845-3.648 0.998 1.312-0.787 2.317-2.029 2.79-3.514-1.229 0.73-2.586 1.254-4.032 1.542-1.158-1.235-2.81-2.003-4.634-2.003-3.507 0-6.349 2.842-6.349 6.349 0 0.499 0.058 0.979 0.166 1.446-5.28-0.262-9.958-2.79-13.088-6.637-0.544 0.941-0.858 2.029-0.858 3.194 0 2.202 1.12 4.147 2.822 5.286-1.043-0.032-2.022-0.32-2.874-0.794 0 0.026 0 0.051 0 0.077 0 3.078 2.189 5.645 5.094 6.227-0.531 0.147-1.094 0.224-1.67 0.224-0.41 0-0.806-0.038-1.197-0.115 0.806 2.522 3.155 4.358 5.933 4.41-2.176 1.702-4.909 2.72-7.885 2.72-0.512 0-1.018-0.032-1.517-0.090 2.81 1.798 6.15 2.854 9.734 2.854 11.68 0 18.067-9.677 18.067-18.067 0-0.275-0.006-0.55-0.019-0.819 1.235-0.896 2.31-2.016 3.162-3.29z"></path>
</svg>
