<!-- Generated by IcoMoon.io -->
<svg version="1.1" xmlns="http://www.w3.org/2000/svg" width="32" height="32" viewBox="0 0 32 32">
<title>website</title>
<path d="M27.743 21.816l-6.726-6.726 7.142-3.575c0.536-0.268 0.85-0.841 0.785-1.432s-0.499-1.081-1.072-1.229l-23.024-5.756c-0.111-0.028-0.231-0.046-0.351-0.046-0.379 0-0.739 0.148-1.007 0.416-0.351 0.351-0.499 0.868-0.379 1.358l5.756 23.024c0.148 0.573 0.637 1.007 1.229 1.072 0.046 0.009 0.102 0.009 0.157 0.009 0.545 0 1.035-0.305 1.275-0.785l3.575-7.142 6.726 6.726c0.785 0.785 1.839 1.22 2.957 1.22s2.162-0.434 2.957-1.22c0.785-0.785 1.22-1.839 1.22-2.957s-0.434-2.162-1.22-2.957zM25.812 25.807c-0.37 0.37-0.804 0.425-1.035 0.425-0.222 0-0.656-0.055-1.035-0.425l-9.387-9.396-3.363 6.726-0.332 0.674-0.185-0.73-4.093-16.372-0.111-0.453 0.453 0.111 17.102 4.278-0.674 0.332-6.726 3.363 9.396 9.396c0.37 0.37 0.425 0.804 0.425 1.035 0 0.222-0.055 0.656-0.434 1.035z"></path>
</svg>
